<?xml version="1.0" encoding="UTF-8"?>
<svg width="167px" height="25px" viewBox="0 0 167 25" version="1.1" xmlns="http://www.w3.org/2000/svg" xmlns:xlink="http://www.w3.org/1999/xlink">
    <!-- Generator: Sketch 59.1 (86144) - https://sketch.com -->
    <title>logo1</title>
    <desc>Created with Sketch.</desc>
    <g id="组件" stroke="none" stroke-width="1" fill="none" fill-rule="evenodd">
        <g id="footer备份" transform="translate(-121.000000, -64.000000)" fill="#8A94A6">
            <g id="编组" transform="translate(120.000000, 60.000000)">
                <g id="logo1">
                    <g id="编组-2备份-2" transform="translate(1.500000, 4.166667)">
                        <path d="M34.1693686,0 C40.4747542,0 45.6792856,4.80437718 46.2797779,10.9245634 C49.3423896,11.582432 51.6643991,14.3135549 51.6643991,17.5630093 C51.6643991,21.2523703 48.7087973,24.253554 45.0340166,24.377002 L44.798501,24.3809524 L23.8605083,24.3809524 C19.3365734,24.3809524 15.6734694,20.7328312 15.6734694,16.2473442 C15.6734694,12.160596 18.7160551,8.79147672 22.6594515,8.21338472 C24.3208906,3.34917513 28.9448111,0 34.1693686,0 Z M14.4809623,21.478458 C14.8142341,21.478458 15.0929705,21.7505669 15.0929705,22.0891912 L15.0929705,23.7702192 C15.0929705,24.1088435 14.8202936,24.3809524 14.4809623,24.3809524 L12.8024844,24.3809524 C12.4631531,24.3809524 12.1904762,24.1088435 12.1904762,23.7702192 L12.1904762,22.0891912 C12.1904762,21.7505669 12.4631531,21.478458 12.8024844,21.478458 L14.4809623,21.478458 Z M5.89588097,19.7369615 C6.1624984,19.7369615 6.38548753,19.9546485 6.38548753,20.225548 L6.38548753,21.5703704 C6.38548753,21.8412698 6.16734599,22.0589569 5.89588097,22.0589569 L4.55309862,22.0589569 C4.2816336,22.0589569 4.06349206,21.8412698 4.06349206,21.5703704 L4.06349206,20.225548 C4.06349206,19.9546485 4.2816336,19.7369615 4.55309862,19.7369615 L5.89588097,19.7369615 Z M34.1694409,3.05008506 C30.5663427,3.05008506 27.3234965,5.1831718 25.8822717,8.37279382 C27.2834444,8.7316443 28.5845592,9.44927326 29.6455059,10.4859364 C31.0880321,11.9225623 28.9068556,14.0962574 27.4636065,12.6589114 C26.50279,11.7019528 25.221629,11.1637491 23.8605083,11.1637491 C21.0380646,11.1637491 18.7360812,13.4363728 18.7360812,16.2472722 C18.7360812,18.9860973 20.9215276,21.2138966 23.6444539,21.3263421 L23.8605083,21.3307953 L44.798501,21.3307953 C46.9002962,21.3307953 48.6017873,19.6362636 48.6017873,17.5630093 C48.6017873,15.9681983 47.5808926,14.6126449 46.1797199,14.0743692 C46.0795897,14.6923495 45.9194536,15.3103297 45.7192654,15.9083659 C45.1398836,17.7551066 42.1702448,16.9327169 42.8167897,14.9514793 C43.1171082,14.0344089 43.2772443,13.0775943 43.2772443,12.1006916 C43.2772443,7.11688915 39.1937378,3.05008506 34.1694409,3.05008506 Z M35.2174579,7.89605453 C35.3732033,7.89605453 35.4994599,8.0223111 35.4994599,8.17805648 L35.4992618,9.02405453 L36.6322618,9.02405453 L36.6323736,8.17805648 C36.6323736,8.0223111 36.7586302,7.89605453 36.9143756,7.89605453 L38.0497423,7.89605453 C38.2054877,7.89605453 38.3317442,8.0223111 38.3317442,8.17805648 L38.3329889,9.10595747 C38.5962343,9.15307774 38.8118277,9.22053192 38.9797709,9.30832029 C39.4057486,9.51587476 39.7274929,9.86329768 39.9450134,10.3505995 C40.0990904,10.6844915 40.1761278,11.0319144 40.1761278,11.3928787 C40.1761278,11.8621323 40.0515085,12.2997949 39.8022663,12.7058797 C39.553024,13.1119646 39.2380771,13.3917077 38.8574162,13.5451175 C39.7365617,13.9421783 40.1761278,14.6505601 40.1761278,15.6702842 C40.1761278,16.2568512 40.0356479,16.7486577 39.7546839,17.1457184 C39.5099733,17.4886345 39.1972922,17.7255138 38.8166313,17.8563633 C38.6795934,17.9034692 38.518477,17.9420958 38.3332815,17.9722434 L38.3317442,18.8941305 C38.3317442,19.0498759 38.2054877,19.1761324 38.0497423,19.1761324 L36.9143756,19.1761324 C36.7586302,19.1761324 36.6323736,19.0498759 36.6323736,18.8941305 L36.6322618,18.0520545 L35.4992618,18.0520545 L35.4994599,18.8941305 C35.4994599,19.0498759 35.3732033,19.1761324 35.2174579,19.1761324 L34.0820912,19.1761324 C33.9263458,19.1761324 33.8000893,19.0498759 33.8000893,18.8941305 L33.7992618,18.0520545 L32.6647225,18.0526367 L32.6112618,18.0480545 L31.8162637,18.0481246 C31.6605184,18.0481246 31.5342618,17.9218681 31.5342618,17.7661227 L31.5342618,16.6381149 C31.5342618,16.4823695 31.6605184,16.356113 31.8162637,16.356113 L32.1002618,16.3560545 L32.1002618,10.7160545 L31.8162637,10.716074 C31.6605184,10.716074 31.5342618,10.5898174 31.5342618,10.4340721 L31.5342618,9.30606427 C31.5342618,9.15031889 31.6605184,9.02406232 31.8162637,9.02406232 L33.7992618,9.02405453 L33.8000893,8.17805648 C33.8000893,8.0223111 33.9263458,7.89605453 34.0820912,7.89605453 L35.2174579,7.89605453 Z M11.2169312,15.0929705 C11.7587302,15.0929705 12.1904762,15.5331822 12.1904762,16.0665155 L12.1904762,18.1829176 C12.1904762,18.7162509 11.7587302,19.1564626 11.2253968,19.1564626 L9.09206349,19.1564626 C8.55873016,19.1564626 8.12698413,18.7162509 8.12698413,18.1829176 L8.12698413,16.0665155 C8.12698413,15.5331822 8.55873016,15.0929705 9.09206349,15.0929705 L11.2169312,15.0929705 Z M1.33659864,16.2539683 C1.55863946,16.2539683 1.7414966,16.4368254 1.7414966,16.6588662 L1.7414966,17.5905669 C1.7414966,17.8126077 1.55863946,17.9954649 1.33659864,17.9954649 L0.404897959,17.9954649 C0.182857143,17.9954649 0,17.8126077 0,17.5905669 L0,16.6588662 C0,16.4368254 0.182857143,16.2539683 0.404897959,16.2539683 L1.33659864,16.2539683 Z M36.6958168,14.3437471 L34.0312037,14.3437471 L34.0312037,16.4418416 L36.6550319,16.4418416 C36.9359959,16.4418416 37.1399183,16.4283056 37.2668053,16.4012333 C37.3936923,16.3741609 37.5115141,16.3155051 37.6202744,16.2252641 C37.9012384,16.0086855 38.0417183,15.7108944 38.0417183,15.3318819 C38.0417183,14.9709176 37.9103016,14.7047104 37.6474643,14.5332524 C37.4571339,14.4069149 37.1399212,14.3437471 36.6958168,14.3437471 Z M6.3539782,12.1904762 C6.68724999,12.1904762 6.96598639,12.462585 6.96598639,12.8012094 L6.96598639,14.4822373 C6.96598639,14.8208617 6.69330947,15.0929705 6.3539782,15.0929705 L4.67550026,15.0929705 C4.33616898,15.0929705 4.06349206,14.8208617 4.06349206,14.4822373 L4.06349206,12.8012094 C4.06349206,12.462585 4.33616898,12.1904762 4.67550026,12.1904762 L6.3539782,12.1904762 Z M36.6958168,10.6348574 L34.0312037,10.6348574 L34.0312037,12.7329519 L36.6550319,12.7329519 L36.8764361,12.729637 C37.0447547,12.7241121 37.1726112,12.711681 37.2600078,12.6923437 C37.3823631,12.6652713 37.5024508,12.6066155 37.6202744,12.5163744 C37.9012384,12.2997959 38.0417183,12.0020048 38.0417183,11.6229923 C38.0417183,11.262028 37.9103016,10.9958208 37.6474643,10.8243628 C37.4571339,10.6980253 37.1399212,10.6348574 36.6958168,10.6348574 Z M12.8899693,7.54648526 C13.462428,7.54648526 13.9319728,8.01733434 13.9319728,8.59138322 L13.9319728,11.1455782 C13.9319728,11.7196271 13.462428,12.1904762 12.8899693,12.1904762 L10.3299854,12.1904762 C9.75752665,12.1904762 9.28798186,11.7196271 9.28798186,11.1455782 L9.28798186,8.59138322 C9.28798186,8.01733434 9.75752665,7.54648526 10.3299854,7.54648526 L12.8899693,7.54648526 Z M18.4220527,3.4829932 C18.8219789,3.4829932 19.1564626,3.80952381 19.1564626,4.21587302 L19.1564626,6.23310658 C19.1564626,6.63945578 18.8292503,6.96598639 18.4220527,6.96598639 L16.4078792,6.96598639 C16.0006817,6.96598639 15.6734694,6.63945578 15.6734694,6.23310658 L15.6734694,4.21587302 C15.6734694,3.80952381 16.0006817,3.4829932 16.4078792,3.4829932 L18.4220527,3.4829932 Z M61.8579592,14.4497778 L61.8579592,19.7369615 L58.890449,19.7369615 L58.890449,5.79802268 L65.7031837,5.79802268 C67.6536696,5.79802268 69.0120234,6.04879568 69.7782857,6.55034921 C70.3077033,6.88471823 70.7152095,7.32705394 71.0008163,7.87736961 C71.2864232,8.42768529 71.4292245,9.03023709 71.4292245,9.68504308 C71.4292245,11.0085871 71.0948605,12.0325769 70.4261224,12.7570431 C70.0081612,13.1889364 69.4578538,13.5163345 68.7751837,13.7392472 C69.3185333,13.9342958 69.7295224,14.1397903 70.0081633,14.355737 C70.2868041,14.5716836 70.5375771,14.8886328 70.7604898,15.3065941 C70.9276743,15.6409631 71.0495778,15.9613953 71.1262041,16.2679002 C71.1875051,16.5131042 71.2376599,16.8519271 71.2766693,17.284376 L71.3038367,17.6262676 C71.387429,18.6293746 71.4988837,19.3329322 71.6382041,19.7369615 L68.3154286,19.7369615 C68.2179043,19.4165245 68.1134155,18.7547624 68.0019592,17.7516553 C67.932299,16.9435969 67.7894977,16.3236303 67.573551,15.891737 C67.3576044,15.4598436 67.0336892,15.1185137 66.6017959,14.867737 C66.0584463,14.5751641 65.2712977,14.4358457 64.2403265,14.4497778 L61.8579592,14.4497778 Z M61.8579592,11.9629206 L66.0166531,11.9629206 C66.7132552,11.9629206 67.2078353,11.8584319 67.5004082,11.6494512 C67.9462335,11.3429463 68.1691429,10.8065707 68.1691429,10.0403084 C68.1691429,9.1904538 67.8347789,8.6471123 67.1660408,8.41026757 C66.9291961,8.32667532 66.5460707,8.28487982 66.0166531,8.28487982 L61.8579592,8.28487982 L61.8579592,11.9629206 Z M80.7706122,13.5511655 C80.7706122,12.8406314 80.627811,12.3599831 80.3422041,12.1092063 C80.0565972,11.8584296 79.488875,11.7330431 78.6390204,11.7330431 L73.9160816,11.7330431 L73.9160816,9.55965533 L78.9870367,9.56072154 C79.650655,9.5649864 80.1197887,9.58204585 80.394449,9.61190023 C80.714886,9.64673033 81.042284,9.71290654 81.3766531,9.81043084 C82.9231098,10.3955766 83.654531,11.7957259 83.5709388,14.0109206 L83.5709388,19.7369615 L77.6777143,19.7369615 C76.6188791,19.7369615 75.8874578,19.7056148 75.4834286,19.6429206 C75.0793993,19.5802264 74.7241376,19.451357 74.4176327,19.2563084 C73.5956421,18.6990267 73.1846531,17.8561508 73.1846531,16.7276553 C73.1846531,16.0449852 73.3483521,15.4354675 73.6757551,14.8990839 C74.0031581,14.3627003 74.4385279,13.9969896 74.9818776,13.801941 C75.4259614,13.6452056 76.1455465,13.5619409 77.1406522,13.5521451 L80.7706122,13.5511655 Z M80.7706122,17.5635737 L80.7706122,15.7245533 L77.0716735,15.7245533 C76.7512365,15.7245533 76.4969805,15.8081443 76.308898,15.9753288 C76.1208154,16.1425133 76.0267755,16.3723886 76.0267755,16.6649615 C76.0267755,16.9853984 76.1417131,17.2152737 76.3715918,17.3545941 C76.6014705,17.4939145 76.9950448,17.5635737 77.5523265,17.5635737 L80.7706122,17.5635737 Z M88.9835102,9.55965533 L91.4494694,9.55965533 C92.5361687,9.55965533 93.4208401,9.72683733 94.1035102,10.0612063 C95.036957,10.5209638 95.712651,11.2245213 96.1306122,12.1719002 C96.4231851,12.8824344 96.5694694,13.6626171 96.5694694,14.5124717 C96.5694694,16.5744139 95.8241163,18.0651201 94.3333878,18.9846349 C93.8596983,19.2772078 93.3720841,19.4757364 92.8705306,19.5802268 C92.3689771,19.6847171 91.6584536,19.7369615 90.7389388,19.7369615 L86.1831837,19.7369615 L86.1831837,5.79802268 L88.9835102,5.79802268 L88.9835102,9.55965533 Z M88.9835102,11.7330431 L88.9835102,17.5635737 L91.0524082,17.5635737 C91.9301268,17.5635737 92.5918889,17.2919029 93.0377143,16.7485533 C93.4835396,16.1634075 93.706449,15.4459181 93.706449,14.5960635 C93.706449,12.6873737 92.8217776,11.7330431 91.0524082,11.7330431 L88.9835102,11.7330431 Z M101.438694,9.55965533 L103.904653,9.55965533 C104.991352,9.55965533 105.876024,9.72683733 106.558694,10.0612063 C107.492141,10.5209638 108.167835,11.2245213 108.585796,12.1719002 C108.878369,12.8824344 109.024653,13.6626171 109.024653,14.5124717 C109.024653,16.5744139 108.2793,18.0651201 106.788571,18.9846349 C106.314882,19.2772078 105.827268,19.4757364 105.325714,19.5802268 C104.824161,19.6847171 104.113637,19.7369615 103.194122,19.7369615 L98.6383673,19.7369615 L98.6383673,5.79802268 L101.438694,5.79802268 L101.438694,9.55965533 Z M101.438694,11.7330431 L101.438694,17.5635737 L103.507592,17.5635737 C104.385311,17.5635737 105.047073,17.2919029 105.492898,16.7485533 C105.938723,16.1634075 106.161633,15.4459181 106.161633,14.5960635 C106.161633,12.6873737 105.276961,11.7330431 103.507592,11.7330431 L101.438694,11.7330431 Z M111.093551,9.55965533 L113.893878,9.55965533 L113.893878,19.7369615 L111.093551,19.7369615 L111.093551,9.55965533 Z M111.093551,8.51475737 L111.093551,5.79802268 L113.893878,5.79802268 L113.893878,8.51475737 L111.093551,8.51475737 Z M117.404735,9.55965533 L117.404735,5.79802268 L120.205061,5.79802268 L120.205061,9.55965533 L122.796408,9.55965533 L122.796408,11.7330431 L120.205061,11.7330431 L120.205061,15.4319819 C120.205061,16.2957685 120.281686,16.83911 120.434939,17.0620227 C120.671783,17.3963917 121.089739,17.5635737 121.688816,17.5635737 L122.796408,17.5635737 L122.796408,19.7369615 L120.769306,19.7369615 C119.557218,19.7369615 118.693445,19.4443929 118.177959,18.8592472 C117.662474,18.2741014 117.404735,17.2919071 117.404735,15.9126349 L117.404735,11.7330431 L115.628408,11.7330431 L115.628408,9.55965533 L117.404735,9.55965533 Z M127.728327,14.867737 L127.728327,19.7369615 L124.760816,19.7369615 L124.760816,5.79802268 L131.719837,5.79802268 C132.987653,5.79802268 133.893222,5.88857959 134.436571,6.06969615 C135.356086,6.37620108 136.080544,7.0100995 136.609959,7.97141043 C137.000056,8.69587664 137.195102,9.48302523 137.195102,10.3328798 C137.195102,11.043414 137.066233,11.7156249 136.80849,12.3495329 C136.550747,12.9834408 136.192002,13.5024016 135.732245,13.9064308 C135.314284,14.2686639 134.871948,14.5194369 134.405224,14.6587574 C133.938501,14.7980778 133.30112,14.867737 132.493061,14.867737 L127.728327,14.867737 Z M127.728327,12.3808798 L131.761633,12.3808798 C132.486099,12.3808798 132.994611,12.2694252 133.287184,12.0465125 C133.719077,11.6982114 133.93502,11.0921767 133.93502,10.22839 C133.93502,9.29494318 133.607622,8.69587434 132.952816,8.43116553 C132.715972,8.33364124 132.339812,8.28487982 131.824327,8.28487982 L127.728327,8.28487982 L127.728327,12.3808798 Z M143.715265,9.41336961 C145.596091,9.41336961 146.982308,9.95671112 147.873959,11.0434104 C148.69595,12.0325854 149.106939,13.2794845 149.106939,14.7841451 C149.106939,16.372398 148.591461,17.6401948 147.56049,18.5875737 C146.613111,19.4513603 145.31745,19.8832472 143.673469,19.8832472 C141.97376,19.8832472 140.64327,19.395633 139.681959,18.42039 C138.790308,17.5426713 138.34449,16.2609427 138.34449,14.5751655 C138.34449,13.1540972 138.769411,11.9698914 139.619265,11.0225125 C140.566644,9.96367725 141.931964,9.42730166 143.715265,9.41336961 Z M143.736163,11.5449615 C142.050386,11.5449615 141.20751,12.589849 141.20751,14.6796553 C141.20751,15.5295099 141.346829,16.1773402 141.625469,16.6231655 C142.085227,17.3754958 142.79575,17.7516553 143.757061,17.7516553 C145.414974,17.7516553 146.243918,16.7137337 146.243918,14.6378594 C146.243918,12.6037812 145.408008,11.5728255 143.736163,11.5449615 Z M155.877878,9.41336961 C157.758703,9.41336961 159.144921,9.95671112 160.036571,11.0434104 C160.858562,12.0325854 161.269551,13.2794845 161.269551,14.7841451 C161.269551,16.372398 160.754073,17.6401948 159.723102,18.5875737 C158.775723,19.4513603 157.480063,19.8832472 155.836082,19.8832472 C154.136372,19.8832472 152.805882,19.395633 151.844571,18.42039 C150.952921,17.5426713 150.507102,16.2609427 150.507102,14.5751655 C150.507102,13.1540972 150.932023,11.9698914 151.781878,11.0225125 C152.729256,9.96367725 154.094576,9.42730166 155.877878,9.41336961 Z M155.898776,11.5449615 C154.212998,11.5449615 153.370122,12.589849 153.370122,14.6796553 C153.370122,15.5295099 153.509441,16.1773402 153.788082,16.6231655 C154.247839,17.3754958 154.958363,17.7516553 155.919673,17.7516553 C157.577587,17.7516553 158.406531,16.7137337 158.406531,14.6378594 C158.406531,12.6037812 157.570621,11.5728255 155.898776,11.5449615 Z M166.138776,19.7369615 L163.338449,19.7369615 L163.338449,5.79802268 L166.138776,5.79802268 L166.138776,19.7369615 Z" id="形状结合"></path>
                    </g>
                </g>
            </g>
        </g>
    </g>
</svg>