<?xml version="1.0" encoding="UTF-8"?>
<svg width="78px" height="120px" viewBox="0 0 78 120" version="1.1" xmlns="http://www.w3.org/2000/svg" xmlns:xlink="http://www.w3.org/1999/xlink">
    <!-- Generator: Sketch 58 (84663) - https://sketch.com -->
    <title>img3</title>
    <desc>Created with Sketch.</desc>
    <defs>
        <linearGradient x1="-0.0206534422%" y1="50.3803504%" x2="99.947958%" y2="50.3803504%" id="linearGradient-1">
            <stop stop-color="#CDDAF4" offset="0%"></stop>
            <stop stop-color="#DAE4F8" offset="13.14%"></stop>
            <stop stop-color="#EDF3FD" offset="38.28%"></stop>
            <stop stop-color="#F4F9FF" offset="55.66%"></stop>
            <stop stop-color="#F1F7FE" offset="72.39%"></stop>
            <stop stop-color="#E8F0FC" offset="83.73%"></stop>
            <stop stop-color="#D9E4F7" offset="93.45%"></stop>
            <stop stop-color="#CAD8F3" offset="100%"></stop>
        </linearGradient>
        <linearGradient x1="0.0438284214%" y1="50.0362538%" x2="99.9917129%" y2="50.0362538%" id="linearGradient-2">
            <stop stop-color="#FFF52A" offset="0.1257622%"></stop>
            <stop stop-color="#FFF32A" offset="50.58%"></stop>
            <stop stop-color="#FFEC2C" offset="70.96%"></stop>
            <stop stop-color="#FFE02F" offset="85.85%"></stop>
            <stop stop-color="#FFCF32" offset="98.06%"></stop>
            <stop stop-color="#FFCB33" offset="100%"></stop>
        </linearGradient>
        <linearGradient x1="36.9473921%" y1="63.0722327%" x2="63.0232645%" y2="36.8717804%" id="linearGradient-3">
            <stop stop-color="#F4F9FF" offset="0%"></stop>
            <stop stop-color="#CAD8F3" offset="100%"></stop>
        </linearGradient>
        <linearGradient x1="49.9786595%" y1="100.036261%" x2="49.9786595%" y2="0.0999055713%" id="linearGradient-4">
            <stop stop-color="#45CC86" offset="0%"></stop>
            <stop stop-color="#BAF281" offset="100%"></stop>
        </linearGradient>
        <linearGradient x1="49.9754408%" y1="100.043986%" x2="49.9754408%" y2="0.00962199313%" id="linearGradient-5">
            <stop stop-color="#45CC86" offset="0%"></stop>
            <stop stop-color="#BAF281" offset="100%"></stop>
        </linearGradient>
        <linearGradient x1="0.0568543452%" y1="50.3395013%" x2="100.006548%" y2="50.3395013%" id="linearGradient-6">
            <stop stop-color="#CDDAF4" offset="0%"></stop>
            <stop stop-color="#DAE4F8" offset="13.14%"></stop>
            <stop stop-color="#EDF3FD" offset="38.28%"></stop>
            <stop stop-color="#F4F9FF" offset="55.66%"></stop>
            <stop stop-color="#F1F7FE" offset="72.39%"></stop>
            <stop stop-color="#E8F0FC" offset="83.73%"></stop>
            <stop stop-color="#D9E4F7" offset="93.45%"></stop>
            <stop stop-color="#CAD8F3" offset="100%"></stop>
        </linearGradient>
        <linearGradient x1="0.0302603369%" y1="50.009413%" x2="100.021868%" y2="50.009413%" id="linearGradient-7">
            <stop stop-color="#FFF52A" offset="0.1257622%"></stop>
            <stop stop-color="#FFF32A" offset="50.58%"></stop>
            <stop stop-color="#FFEC2C" offset="70.96%"></stop>
            <stop stop-color="#FFE02F" offset="85.85%"></stop>
            <stop stop-color="#FFCF32" offset="98.06%"></stop>
            <stop stop-color="#FFCB33" offset="100%"></stop>
        </linearGradient>
        <linearGradient x1="-0.0124270712%" y1="50.3809762%" x2="99.9561844%" y2="50.3809762%" id="linearGradient-8">
            <stop stop-color="#CDDAF4" offset="0%"></stop>
            <stop stop-color="#DAE4F8" offset="13.14%"></stop>
            <stop stop-color="#EDF3FD" offset="38.28%"></stop>
            <stop stop-color="#F4F9FF" offset="55.66%"></stop>
            <stop stop-color="#F1F7FE" offset="72.39%"></stop>
            <stop stop-color="#E8F0FC" offset="83.73%"></stop>
            <stop stop-color="#D9E4F7" offset="93.45%"></stop>
            <stop stop-color="#CAD8F3" offset="100%"></stop>
        </linearGradient>
        <linearGradient x1="0.0520571929%" y1="50.0367573%" x2="99.9999416%" y2="50.0367573%" id="linearGradient-9">
            <stop stop-color="#F4F9FF" offset="0%"></stop>
            <stop stop-color="#CAD8F3" offset="100%"></stop>
        </linearGradient>
        <linearGradient x1="36.9579737%" y1="63.0724504%" x2="63.0338462%" y2="36.8719546%" id="linearGradient-10">
            <stop stop-color="#F4F9FF" offset="0%"></stop>
            <stop stop-color="#CAD8F3" offset="100%"></stop>
        </linearGradient>
        <linearGradient x1="49.9939809%" y1="100.037016%" x2="49.9939809%" y2="0.100661001%" id="linearGradient-11">
            <stop stop-color="#FFF52A" offset="0.1257622%"></stop>
            <stop stop-color="#FFF32A" offset="50.58%"></stop>
            <stop stop-color="#FFEC2C" offset="70.96%"></stop>
            <stop stop-color="#FFE02F" offset="85.85%"></stop>
            <stop stop-color="#FFCF32" offset="98.06%"></stop>
            <stop stop-color="#FFCB33" offset="100%"></stop>
        </linearGradient>
        <linearGradient x1="49.9937028%" y1="100.044903%" x2="49.9937028%" y2="0.0107674685%" id="linearGradient-12">
            <stop stop-color="#FFF52A" offset="0.1257622%"></stop>
            <stop stop-color="#FFF32A" offset="50.58%"></stop>
            <stop stop-color="#FFEC2C" offset="70.96%"></stop>
            <stop stop-color="#FFE02F" offset="85.85%"></stop>
            <stop stop-color="#FFCF32" offset="98.06%"></stop>
            <stop stop-color="#FFCB33" offset="100%"></stop>
        </linearGradient>
        <linearGradient x1="-0.439655172%" y1="49.5125082%" x2="99.0517241%" y2="49.5125082%" id="linearGradient-13">
            <stop stop-color="#FFF52A" offset="0.1257622%"></stop>
            <stop stop-color="#FFF32A" offset="50.58%"></stop>
            <stop stop-color="#FFEC2C" offset="70.96%"></stop>
            <stop stop-color="#FFE02F" offset="85.85%"></stop>
            <stop stop-color="#FFCF32" offset="98.06%"></stop>
            <stop stop-color="#FFCB33" offset="100%"></stop>
        </linearGradient>
        <linearGradient x1="0.425362319%" y1="49.8553485%" x2="100.022464%" y2="49.8553485%" id="linearGradient-14">
            <stop stop-color="#FFF52A" offset="0.1257622%"></stop>
            <stop stop-color="#FFF32A" offset="50.58%"></stop>
            <stop stop-color="#FFEC2C" offset="70.96%"></stop>
            <stop stop-color="#FFE02F" offset="85.85%"></stop>
            <stop stop-color="#FFCF32" offset="98.06%"></stop>
            <stop stop-color="#FFCB33" offset="100%"></stop>
        </linearGradient>
        <linearGradient x1="-0.439655172%" y1="49.9137335%" x2="99.0517241%" y2="49.9137335%" id="linearGradient-15">
            <stop stop-color="#FFF52A" offset="0.1257622%"></stop>
            <stop stop-color="#FFF32A" offset="50.58%"></stop>
            <stop stop-color="#FFEC2C" offset="70.96%"></stop>
            <stop stop-color="#FFE02F" offset="85.85%"></stop>
            <stop stop-color="#FFCF32" offset="98.06%"></stop>
            <stop stop-color="#FFCB33" offset="100%"></stop>
        </linearGradient>
        <linearGradient x1="0.425362319%" y1="50.013827%" x2="100.022464%" y2="50.013827%" id="linearGradient-16">
            <stop stop-color="#FFF52A" offset="0.1257622%"></stop>
            <stop stop-color="#FFF32A" offset="50.58%"></stop>
            <stop stop-color="#FFEC2C" offset="70.96%"></stop>
            <stop stop-color="#FFE02F" offset="85.85%"></stop>
            <stop stop-color="#FFCF32" offset="98.06%"></stop>
            <stop stop-color="#FFCB33" offset="100%"></stop>
        </linearGradient>
        <linearGradient x1="49.9786652%" y1="0.0230858022%" x2="49.9786652%" y2="100.049558%" id="linearGradient-17">
            <stop stop-color="#FFF52A" stop-opacity="0" offset="0.1257622%"></stop>
            <stop stop-color="#FFF32A" stop-opacity="0.5052" offset="50.58%"></stop>
            <stop stop-color="#FFEC2C" stop-opacity="0.7092" offset="70.96%"></stop>
            <stop stop-color="#FFE02F" stop-opacity="0.8583" offset="85.85%"></stop>
            <stop stop-color="#FFCF32" stop-opacity="0.9806" offset="98.06%"></stop>
            <stop stop-color="#FFCB33" offset="100%"></stop>
        </linearGradient>
        <linearGradient x1="49.970092%" y1="0.0151939655%" x2="49.970092%" y2="99.9193966%" id="linearGradient-18">
            <stop stop-color="#FFF52A" stop-opacity="0" offset="0.1257622%"></stop>
            <stop stop-color="#FFF32A" stop-opacity="0.5052" offset="50.58%"></stop>
            <stop stop-color="#FFEC2C" stop-opacity="0.7092" offset="70.96%"></stop>
            <stop stop-color="#FFE02F" stop-opacity="0.8583" offset="85.85%"></stop>
            <stop stop-color="#FFCF32" stop-opacity="0.9806" offset="98.06%"></stop>
            <stop stop-color="#FFCB33" offset="100%"></stop>
        </linearGradient>
        <linearGradient x1="50.2043147%" y1="100.080786%" x2="50.2043147%" y2="0.109383378%" id="linearGradient-19">
            <stop stop-color="#FFFFFF" offset="0%"></stop>
            <stop stop-color="#FFFFFF" stop-opacity="0" offset="99.62%"></stop>
        </linearGradient>
        <linearGradient x1="35.3926826%" y1="83.0229056%" x2="64.6541897%" y2="17.0014261%" id="linearGradient-20">
            <stop stop-color="#FFF52A" offset="0.1257622%"></stop>
            <stop stop-color="#FFF52A" offset="0.1905186%"></stop>
            <stop stop-color="#FFE22E" offset="15.23%"></stop>
            <stop stop-color="#FFD531" offset="32.85%"></stop>
            <stop stop-color="#FFCD33" offset="55.46%"></stop>
            <stop stop-color="#FFCB33" offset="100%"></stop>
        </linearGradient>
        <linearGradient x1="0.44180404%" y1="51.0383044%" x2="100.641173%" y2="48.9719331%" id="linearGradient-21">
            <stop stop-color="#835C1F" offset="0.537634%"></stop>
            <stop stop-color="#AA812A" offset="40.79%"></stop>
            <stop stop-color="#C99D32" offset="78.71%"></stop>
            <stop stop-color="#D4A835" offset="100%"></stop>
        </linearGradient>
        <linearGradient x1="29.9081833%" y1="24.5071309%" x2="62.8548262%" y2="74.9096586%" id="linearGradient-22">
            <stop stop-color="#FFF52A" offset="0.1257622%"></stop>
            <stop stop-color="#FFCB33" offset="100%"></stop>
        </linearGradient>
        <linearGradient x1="35.3828504%" y1="83.0151759%" x2="64.6509148%" y2="16.9779267%" id="linearGradient-23">
            <stop stop-color="#FFF52A" offset="0.1257622%"></stop>
            <stop stop-color="#FFCB33" offset="100%"></stop>
        </linearGradient>
    </defs>
    <g id="页面-1" stroke="none" stroke-width="1" fill="none" fill-rule="evenodd" stroke-opacity="0.0419034091">
        <g id="首页" transform="translate(-1068.000000, -782.000000)" fill="#FFFFFF" fill-rule="nonzero" stroke="#000000">
            <g id="编组-9" transform="translate(934.000000, 742.000000)">
                <g id="编组-6备份-2" transform="translate(103.000000, 40.000000)">
                    <g id="算力" transform="translate(27.000000, 0.000000)">
                        <g id="Group" stroke="none" fill="none" transform="translate(4.816054, 6.421405)">
                            <g>
                                <g transform="translate(0.000000, 24.474118)" id="Path">
                                    <g transform="translate(0.000000, 30.849099)">
                                        <path d="M76.8358209,22.389707 C76.8358209,22.4344831 76.8358209,22.4792592 76.8358209,22.5240353 C76.8358209,22.5688115 76.8358209,22.6135876 76.7910448,22.6135876 C76.7910448,22.6583637 76.7910448,22.7031398 76.7462687,22.7479159 C76.7462687,22.7926921 76.7014925,22.7926921 76.7014925,22.8374682 C76.7014925,22.8822443 76.6567164,22.9270204 76.6567164,22.9717965 C76.6567164,23.0165727 76.6119403,23.0165727 76.6119403,23.0613488 C76.5671642,23.1061249 76.5671642,23.150901 76.5223881,23.1956771 C76.5223881,23.2404533 76.4776119,23.2404533 76.4776119,23.2852294 C76.4328358,23.3300055 76.3880597,23.4195577 76.2985075,23.4643338 C76.2985075,23.4643338 76.2537313,23.50911 76.2537313,23.50911 C76.2089552,23.5538861 76.1641791,23.5538861 76.119403,23.5986622 C76.0746269,23.6434383 76.0298507,23.6434383 75.9850746,23.6882144 C75.9402985,23.7329906 75.8955224,23.7329906 75.8507463,23.7777667 C75.8059701,23.8225428 75.761194,23.8225428 75.7164179,23.8673189 L41.4626866,43.7926921 C41.3283582,43.8822443 41.238806,43.9270204 41.1044776,43.9717965 C41.0597015,43.9717965 41.0149254,44.0165727 40.9701493,44.0165727 C40.880597,44.0613488 40.7462687,44.1061249 40.6567164,44.150901 C40.6119403,44.150901 40.5671642,44.1956771 40.5223881,44.1956771 C40.4776119,44.1956771 40.3880597,44.2404533 40.2985075,44.2404533 C40.2537313,44.2404533 40.2089552,44.2852294 40.119403,44.2852294 C40.0298507,44.2852294 39.9850746,44.3300055 39.8955224,44.3300055 C39.8507463,44.3300055 39.8059701,44.3300055 39.761194,44.3747816 C39.6268657,44.4195577 39.4477612,44.4195577 39.3134328,44.4195577 C39.2686567,44.4195577 39.2238806,44.4195577 39.1791045,44.4195577 C39.0895522,44.4195577 39,44.4195577 38.9104478,44.4195577 C38.8656716,44.4195577 38.7761194,44.4195577 38.7313433,44.4195577 C38.641791,44.4195577 38.5970149,44.4195577 38.5074627,44.4195577 C38.4626866,44.4195577 38.3731343,44.4195577 38.3283582,44.4195577 C38.238806,44.4195577 38.1940299,44.4195577 38.1044776,44.4195577 C38.0597015,44.4195577 37.9701493,44.4195577 37.9253731,44.4195577 C37.8358209,44.4195577 37.7910448,44.4195577 37.7462687,44.3747816 C37.7014925,44.3747816 37.6119403,44.3747816 37.5671642,44.3300055 C37.4776119,44.3300055 37.4328358,44.2852294 37.3432836,44.2852294 C37.2985075,44.2852294 37.2537313,44.2852294 37.1641791,44.2404533 C37.0746269,44.2404533 36.9850746,44.1956771 36.8955224,44.1956771 C36.8507463,44.1956771 36.8059701,44.150901 36.761194,44.150901 C36.6268657,44.1061249 36.4925373,44.0613488 36.358209,44.0165727 C36.2686567,43.9717965 36.2238806,43.9717965 36.1791045,43.9270204 C36.1343284,43.9270204 36.0895522,43.8822443 36.0895522,43.8822443 C36,43.8374682 35.9104478,43.7926921 35.8208955,43.7479159 L1.34328358,23.8225428 C0.582089552,23.3747816 0.179104478,22.7926921 0.179104478,22.1658264 L0.134328358,35.6882144 C0.134328358,36.270304 0.537313433,36.8971697 1.29850746,37.3449309 L35.7761194,57.270304 C35.8656716,57.3150801 35.9552239,57.3598562 36.0447761,57.4046324 C36.0895522,57.4046324 36.1343284,57.4494085 36.1343284,57.4494085 C36.1791045,57.4941846 36.2686567,57.4941846 36.3134328,57.5389607 C36.3134328,57.5389607 36.3134328,57.5389607 36.358209,57.5389607 C36.4925373,57.5837368 36.6268657,57.628513 36.761194,57.6732891 C36.761194,57.6732891 36.761194,57.6732891 36.8059701,57.6732891 C36.8507463,57.6732891 36.8955224,57.6732891 36.8955224,57.7180652 C36.9850746,57.7180652 37.0746269,57.7628413 37.1641791,57.7628413 C37.1641791,57.7628413 37.2089552,57.7628413 37.2089552,57.7628413 C37.2537313,57.7628413 37.2985075,57.7628413 37.2985075,57.7628413 C37.3880597,57.7628413 37.4328358,57.8076174 37.5223881,57.8076174 C37.5671642,57.8076174 37.5671642,57.8076174 37.6119403,57.8076174 C37.6567164,57.8076174 37.6567164,57.8076174 37.7014925,57.8076174 C37.7462687,57.8076174 37.8358209,57.8076174 37.880597,57.8523936 C37.9253731,57.8523936 37.9253731,57.8523936 37.9701493,57.8523936 C38.0149254,57.8523936 38.0149254,57.8523936 38.0597015,57.8523936 C38.1492537,57.8523936 38.1940299,57.8523936 38.2835821,57.8523936 C38.3283582,57.8523936 38.3283582,57.8523936 38.3731343,57.8523936 C38.4179104,57.8523936 38.4179104,57.8523936 38.4626866,57.8523936 C38.5522388,57.8523936 38.5970149,57.8523936 38.6865672,57.8523936 C38.7313433,57.8523936 38.7761194,57.8523936 38.7761194,57.8523936 C38.7761194,57.8523936 38.8208955,57.8523936 38.8208955,57.8523936 C38.9104478,57.8523936 39,57.8523936 39.0895522,57.8523936 C39.1343284,57.8523936 39.1791045,57.8523936 39.1791045,57.8523936 C39.1791045,57.8523936 39.1791045,57.8523936 39.2238806,57.8523936 C39.358209,57.8523936 39.5373134,57.8076174 39.6716418,57.8076174 C39.6716418,57.8076174 39.6716418,57.8076174 39.7164179,57.8076174 C39.761194,57.8076174 39.8059701,57.8076174 39.8507463,57.7628413 C39.9402985,57.7628413 39.9850746,57.7180652 40.0746269,57.7180652 C40.119403,57.7180652 40.1641791,57.6732891 40.2537313,57.6732891 C40.3432836,57.6732891 40.3880597,57.628513 40.4776119,57.628513 C40.4776119,57.628513 40.5223881,57.628513 40.5223881,57.628513 C40.5671642,57.628513 40.5671642,57.628513 40.6119403,57.5837368 C40.7014925,57.5389607 40.8358209,57.4941846 40.9253731,57.4494085 C40.9701493,57.4494085 41.0149254,57.4046324 41.0597015,57.4046324 C41.1940299,57.3598562 41.3283582,57.270304 41.4179104,57.2255279 L75.6716418,37.3001547 C75.6716418,37.3001547 75.7164179,37.3001547 75.7164179,37.2553786 C75.761194,37.2553786 75.8059701,37.2106025 75.8059701,37.1658264 C75.8507463,37.1210503 75.8955224,37.1210503 75.9402985,37.0762741 C75.9850746,37.031498 76.0298507,37.031498 76.0298507,36.9867219 C76.0746269,36.9419458 76.119403,36.9419458 76.1641791,36.8971697 C76.1641791,36.8971697 76.1641791,36.8971697 76.2089552,36.8971697 C76.2089552,36.8971697 76.2537313,36.8523936 76.2537313,36.8523936 C76.2985075,36.8076174 76.3880597,36.7180652 76.4328358,36.6732891 C76.4328358,36.6732891 76.4776119,36.628513 76.4776119,36.628513 C76.4776119,36.628513 76.4776119,36.5837368 76.5223881,36.5837368 C76.5671642,36.5389607 76.5671642,36.4941846 76.6119403,36.4494085 C76.6119403,36.4494085 76.6567164,36.4046324 76.6567164,36.4046324 C76.6567164,36.4046324 76.6567164,36.4046324 76.6567164,36.3598562 C76.6567164,36.3150801 76.7014925,36.270304 76.7014925,36.2255279 C76.7014925,36.1807518 76.7462687,36.1807518 76.7462687,36.1359756 C76.7462687,36.1359756 76.7462687,36.1359756 76.7462687,36.0911995 C76.7462687,36.0464234 76.7910448,36.0016473 76.7910448,35.9568712 C76.7910448,35.912095 76.7910448,35.912095 76.8358209,35.8673189 C76.8358209,35.8673189 76.8358209,35.8673189 76.8358209,35.8673189 C76.8358209,35.8225428 76.8358209,35.7777667 76.8358209,35.7329906 C76.8358209,35.6882144 76.8358209,35.6882144 76.8358209,35.6434383 C76.8358209,35.6434383 76.8358209,35.5986622 76.8358209,35.5986622 L76.880597,22.0762741 C76.8358209,22.3001547 76.8358209,22.3449309 76.8358209,22.389707 Z" fill="url(#linearGradient-1)"></path>
                                        <path d="M75.6716418,20.5986622 C77.238806,21.4941846 77.238806,22.9717965 75.6716418,23.8673189 L41.4179104,43.7926921 C39.8955224,44.6882144 37.3432836,44.6882144 35.7761194,43.7926921 L1.29850746,23.8673189 C-0.268656716,22.9717965 -0.268656716,21.4941846 1.29850746,20.5986622 L35.5522388,0.673289073 C37.0746269,-0.222233315 39.6268657,-0.222233315 41.1940299,0.673289073 L75.6716418,20.5986622 Z" fill="url(#linearGradient-2)"></path>
                                        <path d="M67.4328358,21.0016473 C68.641791,21.7180652 68.641791,22.8374682 67.4328358,23.5538861 L40.7910448,39.0464234 C39.5820896,39.7628413 37.6119403,39.7628413 36.4029851,39.0464234 L9.58208955,23.5538861 C8.37313433,22.8374682 8.37313433,21.7180652 9.58208955,21.0016473 L36.2238806,5.50910997 C37.4328358,4.79269206 39.4029851,4.79269206 40.6119403,5.50910997 L67.4328358,21.0016473 Z" fill="url(#linearGradient-3)"></path>
                                        <path d="M58.3432836,21.3598562 C59.1492537,21.8523936 59.1940299,22.6135876 58.3432836,23.1061249 L40.0746269,33.7180652 C39.2686567,34.2106025 37.880597,34.2106025 37.0746269,33.7180652 L18.6716418,23.1061249 C17.8656716,22.6135876 17.8208955,21.8523936 18.6716418,21.3598562 L36.9402985,10.7479159 C37.7462687,10.2553786 39.1343284,10.2553786 39.9402985,10.7479159 L58.3432836,21.3598562 Z" fill="url(#linearGradient-4)"></path>
                                        <path d="M40.0746269,33.7180652 L56.2835821,24.3150801 L39.9402985,14.912095 C39.1343284,14.4195577 37.7462687,14.4195577 36.9402985,14.912095 L20.7313433,24.3150801 L37.0746269,33.7180652 C37.880597,34.2106025 39.2238806,34.2106025 40.0746269,33.7180652 Z" fill="url(#linearGradient-5)"></path>
                                    </g>
                                    <g transform="translate(1.791045, 17.910448)">
                                        <path d="M73.2089552,21.4029851 C73.2089552,21.4477612 73.2089552,21.4925373 73.2089552,21.5373134 C73.2089552,21.5820896 73.2089552,21.5820896 73.1641791,21.6268657 C73.1641791,21.6716418 73.1641791,21.7164179 73.119403,21.761194 C73.119403,21.8059701 73.0746269,21.8059701 73.0746269,21.8507463 C73.0746269,21.8955224 73.0298507,21.9402985 73.0298507,21.9850746 C73.0298507,22.0298507 72.9850746,22.0298507 72.9850746,22.0746269 C72.9402985,22.119403 72.9402985,22.1641791 72.8955224,22.2089552 C72.8955224,22.2537313 72.8507463,22.2537313 72.8507463,22.2985075 C72.8059701,22.3432836 72.761194,22.4328358 72.6716418,22.4776119 C72.6716418,22.4776119 72.6268657,22.5223881 72.6268657,22.5223881 C72.5820896,22.5671642 72.5373134,22.5671642 72.4925373,22.6119403 C72.4477612,22.6567164 72.4029851,22.6567164 72.4029851,22.7014925 C72.358209,22.7462687 72.3134328,22.7462687 72.2686567,22.7910448 C72.2238806,22.8358209 72.1791045,22.8358209 72.1343284,22.880597 L39.4925373,41.8656716 C39.358209,41.9104478 39.2686567,42 39.1343284,42.0447761 C39.0895522,42.0447761 39.0447761,42.0895522 39.0447761,42.0895522 C38.9552239,42.1343284 38.8656716,42.1791045 38.7313433,42.1791045 C38.6865672,42.1791045 38.641791,42.2238806 38.5970149,42.2238806 C38.5522388,42.2238806 38.4626866,42.2686567 38.4179104,42.2686567 C38.3731343,42.2686567 38.3283582,42.3134328 38.2835821,42.3134328 C38.1940299,42.3134328 38.1492537,42.358209 38.0597015,42.358209 C38.0149254,42.358209 37.9701493,42.358209 37.9253731,42.4029851 C37.7910448,42.4477612 37.6567164,42.4477612 37.4776119,42.4477612 C37.4328358,42.4477612 37.3880597,42.4477612 37.3432836,42.4477612 C37.2537313,42.4477612 37.1641791,42.4477612 37.0746269,42.4477612 C37.0298507,42.4477612 36.9850746,42.4477612 36.8955224,42.4477612 C36.8059701,42.4477612 36.761194,42.4477612 36.6716418,42.4477612 C36.6268657,42.4477612 36.5373134,42.4477612 36.4925373,42.4477612 C36.4477612,42.4477612 36.358209,42.4477612 36.3134328,42.4477612 C36.2686567,42.4477612 36.1791045,42.4477612 36.1343284,42.4477612 C36.0895522,42.4477612 36,42.4477612 35.9552239,42.4477612 C35.9104478,42.4477612 35.8208955,42.4477612 35.7761194,42.4029851 C35.6865672,42.4029851 35.641791,42.358209 35.5522388,42.358209 C35.5074627,42.358209 35.4626866,42.358209 35.3731343,42.3134328 C35.2835821,42.3134328 35.1940299,42.2686567 35.1492537,42.2686567 C35.1044776,42.2686567 35.0597015,42.2686567 35.0149254,42.2238806 C34.880597,42.1791045 34.7462687,42.1343284 34.6119403,42.0895522 C34.5671642,42.0447761 34.4776119,42.0447761 34.4328358,42 C34.3880597,42 34.3880597,41.9552239 34.3432836,41.9552239 C34.2537313,41.9104478 34.1641791,41.8656716 34.0746269,41.8208955 L1.20895522,22.8358209 C0.447761194,22.3880597 0.0895522388,21.8507463 0.0895522388,21.2686567 L0.0447761194,34.1641791 C0.0447761194,34.7462687 0.402985075,35.2835821 1.1641791,35.7313433 L34.0298507,54.7164179 C34.119403,54.761194 34.2089552,54.8059701 34.2985075,54.8507463 C34.3432836,54.8507463 34.3432836,54.8955224 34.3880597,54.8955224 C34.4328358,54.9402985 34.4776119,54.9402985 34.5671642,54.9850746 C34.5671642,54.9850746 34.5671642,54.9850746 34.5671642,54.9850746 C34.7014925,55.0298507 34.8358209,55.0746269 34.9701493,55.119403 C34.9701493,55.119403 34.9701493,55.119403 35.0149254,55.119403 C35.0597015,55.119403 35.0597015,55.119403 35.1044776,55.1641791 C35.1940299,55.1641791 35.2835821,55.2089552 35.3283582,55.2089552 C35.3283582,55.2089552 35.3731343,55.2089552 35.3731343,55.2089552 C35.4179104,55.2089552 35.4179104,55.2089552 35.4626866,55.2089552 C35.5074627,55.2089552 35.5970149,55.2537313 35.6865672,55.2537313 C35.7313433,55.2537313 35.7313433,55.2537313 35.7761194,55.2537313 C35.8208955,55.2537313 35.8208955,55.2537313 35.8656716,55.2537313 C35.9104478,55.2537313 36,55.2537313 36.0447761,55.2537313 C36.0895522,55.2537313 36.0895522,55.2537313 36.1343284,55.2537313 C36.1791045,55.2537313 36.1791045,55.2537313 36.2238806,55.2537313 C36.2686567,55.2537313 36.358209,55.2537313 36.4029851,55.2537313 C36.4477612,55.2537313 36.4477612,55.2537313 36.4925373,55.2537313 C36.5373134,55.2537313 36.5373134,55.2537313 36.5820896,55.2537313 C36.6716418,55.2537313 36.7164179,55.2537313 36.8059701,55.2537313 C36.8507463,55.2537313 36.8955224,55.2537313 36.8955224,55.2537313 C36.8955224,55.2537313 36.9402985,55.2537313 36.9402985,55.2537313 C37.0298507,55.2537313 37.119403,55.2537313 37.2089552,55.2537313 C37.2537313,55.2537313 37.2985075,55.2537313 37.2985075,55.2537313 C37.2985075,55.2537313 37.2985075,55.2537313 37.3432836,55.2537313 C37.4776119,55.2537313 37.6119403,55.2089552 37.7910448,55.2089552 C37.7910448,55.2089552 37.7910448,55.2089552 37.8358209,55.2089552 C37.880597,55.2089552 37.9253731,55.2089552 37.9701493,55.1641791 C38.0597015,55.1641791 38.1044776,55.119403 38.1940299,55.119403 C38.238806,55.119403 38.2835821,55.0746269 38.3283582,55.0746269 C38.3731343,55.0746269 38.4626866,55.0298507 38.5074627,55.0298507 C38.5074627,55.0298507 38.5522388,55.0298507 38.5522388,55.0298507 C38.5970149,55.0298507 38.5970149,55.0298507 38.641791,54.9850746 C38.7313433,54.9402985 38.8208955,54.8955224 38.9552239,54.8955224 C39,54.8955224 39.0447761,54.8507463 39.0447761,54.8507463 C39.1791045,54.8059701 39.2686567,54.7164179 39.4029851,54.6716418 L72.0447761,35.6865672 C72.0447761,35.6865672 72.0895522,35.6865672 72.0895522,35.641791 C72.1343284,35.641791 72.1343284,35.5970149 72.1791045,35.5970149 C72.2238806,35.5522388 72.2686567,35.5522388 72.3134328,35.5074627 C72.358209,35.4626866 72.4029851,35.4626866 72.4029851,35.4179104 C72.4477612,35.3731343 72.4925373,35.3731343 72.5373134,35.3283582 C72.5373134,35.3283582 72.5373134,35.3283582 72.5373134,35.3283582 C72.5373134,35.3283582 72.5820896,35.2835821 72.5820896,35.2835821 C72.6268657,35.238806 72.7164179,35.1492537 72.761194,35.1044776 C72.761194,35.1044776 72.8059701,35.0597015 72.8059701,35.0597015 C72.8059701,35.0597015 72.8059701,35.0149254 72.8507463,35.0149254 C72.8955224,34.9701493 72.8955224,34.9253731 72.9402985,34.880597 C72.9402985,34.880597 72.9850746,34.8358209 72.9850746,34.8358209 C72.9850746,34.8358209 72.9850746,34.8358209 72.9850746,34.7910448 C72.9850746,34.7462687 73.0298507,34.7014925 73.0298507,34.6567164 C73.0298507,34.6119403 73.0746269,34.6119403 73.0746269,34.5671642 C73.0746269,34.5671642 73.0746269,34.5671642 73.0746269,34.5223881 C73.0746269,34.4776119 73.119403,34.4328358 73.119403,34.3880597 C73.119403,34.3432836 73.119403,34.3432836 73.119403,34.2985075 C73.119403,34.2985075 73.119403,34.2985075 73.119403,34.2985075 C73.119403,34.2537313 73.119403,34.2089552 73.119403,34.1641791 C73.119403,34.119403 73.119403,34.119403 73.119403,34.0746269 C73.119403,34.0746269 73.119403,34.0746269 73.119403,34.0298507 L73.1641791,21.1343284 C73.2089552,21.358209 73.2089552,21.358209 73.2089552,21.4029851 Z" fill="url(#linearGradient-6)"></path>
                                        <path d="M72.0895522,19.7462687 C73.5671642,20.5970149 73.5671642,21.9850746 72.0895522,22.8358209 L39.4477612,41.8208955 C37.9701493,42.6716418 35.5522388,42.6716418 34.0746269,41.8208955 L1.20895522,22.8358209 C-0.268656716,21.9850746 -0.268656716,20.5970149 1.20895522,19.7462687 L33.8507463,0.76119403 C35.3283582,-0.0895522388 37.7462687,-0.0895522388 39.2238806,0.76119403 L72.0895522,19.7462687 Z" fill="url(#linearGradient-7)"></path>
                                    </g>
                                    <g>
                                        <path d="M76.7910448,22.4328358 C76.7910448,22.4776119 76.7910448,22.5223881 76.7910448,22.5671642 C76.7910448,22.6119403 76.7910448,22.6567164 76.7462687,22.6567164 C76.7462687,22.7014925 76.7462687,22.7462687 76.7014925,22.7910448 C76.7014925,22.8358209 76.6567164,22.8358209 76.6567164,22.880597 C76.6567164,22.9253731 76.6119403,22.9701493 76.6119403,23.0149254 C76.6119403,23.0597015 76.5671642,23.0597015 76.5671642,23.1044776 C76.5223881,23.1492537 76.5223881,23.1940299 76.4776119,23.238806 C76.4776119,23.2835821 76.4328358,23.2835821 76.4328358,23.3283582 C76.3880597,23.3731343 76.3432836,23.4626866 76.2537313,23.5074627 C76.2537313,23.5074627 76.2089552,23.5522388 76.2089552,23.5522388 C76.1641791,23.5970149 76.119403,23.5970149 76.0746269,23.641791 C76.0298507,23.6865672 75.9850746,23.6865672 75.9402985,23.7313433 C75.8955224,23.7761194 75.8507463,23.7761194 75.8059701,23.8208955 C75.761194,23.8656716 75.7164179,23.8656716 75.6716418,23.9104478 L41.4179104,43.8358209 C41.2835821,43.9253731 41.1940299,43.9701493 41.0597015,44.0149254 C41.0149254,44.0149254 40.9701493,44.0597015 40.9253731,44.0597015 C40.8358209,44.1044776 40.7014925,44.1492537 40.6119403,44.1940299 C40.5671642,44.1940299 40.5223881,44.238806 40.4776119,44.238806 C40.4328358,44.238806 40.3432836,44.2835821 40.2537313,44.2835821 C40.2089552,44.2835821 40.1641791,44.3283582 40.0746269,44.3283582 C39.9850746,44.3283582 39.9402985,44.3731343 39.8507463,44.3731343 C39.8059701,44.3731343 39.761194,44.3731343 39.7164179,44.4179104 C39.5820896,44.4626866 39.4029851,44.4626866 39.2686567,44.4626866 C39.2238806,44.4626866 39.1791045,44.4626866 39.1343284,44.4626866 C39.0447761,44.4626866 38.9552239,44.4626866 38.8656716,44.4626866 C38.8208955,44.4626866 38.7313433,44.4626866 38.6865672,44.4626866 C38.5970149,44.4626866 38.5522388,44.4626866 38.4626866,44.4626866 C38.4179104,44.4626866 38.3283582,44.4626866 38.2835821,44.4626866 C38.1940299,44.4626866 38.1492537,44.4626866 38.0597015,44.4626866 C38.0149254,44.4626866 37.9253731,44.4626866 37.880597,44.4626866 C37.7910448,44.4626866 37.7462687,44.4626866 37.7014925,44.4179104 C37.6567164,44.4179104 37.5671642,44.4179104 37.5223881,44.3731343 C37.4328358,44.3731343 37.3880597,44.3283582 37.2985075,44.3283582 C37.2537313,44.3283582 37.2089552,44.3283582 37.119403,44.2835821 C37.0298507,44.2835821 36.9402985,44.238806 36.8507463,44.238806 C36.8059701,44.238806 36.761194,44.1940299 36.7164179,44.1940299 C36.5820896,44.1492537 36.4477612,44.1044776 36.3134328,44.0597015 C36.2238806,44.0149254 36.1791045,44.0149254 36.1343284,43.9701493 C36.0895522,43.9701493 36.0447761,43.9253731 36.0447761,43.9253731 C35.9552239,43.880597 35.8656716,43.8358209 35.7761194,43.7910448 L1.29850746,23.8656716 C0.537313433,23.4179104 0.134328358,22.8358209 0.134328358,22.2089552 L0.0895522388,35.7313433 C0.0895522388,36.3134328 0.492537313,36.9402985 1.25373134,37.3880597 L35.7313433,57.3134328 C35.8208955,57.358209 35.9104478,57.4029851 36,57.4477612 C36.0447761,57.4477612 36.0895522,57.4925373 36.0895522,57.4925373 C36.1343284,57.5373134 36.2238806,57.5373134 36.2686567,57.5820896 C36.2686567,57.5820896 36.2686567,57.5820896 36.3134328,57.5820896 C36.4477612,57.6268657 36.5820896,57.6716418 36.7164179,57.7164179 C36.7164179,57.7164179 36.7164179,57.7164179 36.761194,57.7164179 C36.8059701,57.7164179 36.8507463,57.7164179 36.8507463,57.761194 C36.9402985,57.761194 37.0298507,57.8059701 37.119403,57.8059701 C37.119403,57.8059701 37.1641791,57.8059701 37.1641791,57.8059701 C37.2089552,57.8059701 37.2537313,57.8059701 37.2537313,57.8059701 C37.3432836,57.8059701 37.3880597,57.8507463 37.4776119,57.8507463 C37.5223881,57.8507463 37.5223881,57.8507463 37.5671642,57.8507463 C37.6119403,57.8507463 37.6119403,57.8507463 37.6567164,57.8507463 C37.7014925,57.8507463 37.7910448,57.8507463 37.8358209,57.8955224 C37.880597,57.8955224 37.880597,57.8955224 37.9253731,57.8955224 C37.9701493,57.8955224 37.9701493,57.8955224 38.0149254,57.8955224 C38.1044776,57.8955224 38.1492537,57.8955224 38.238806,57.8955224 C38.2835821,57.8955224 38.2835821,57.8955224 38.3283582,57.8955224 C38.3731343,57.8955224 38.3731343,57.8955224 38.4179104,57.8955224 C38.5074627,57.8955224 38.5522388,57.8955224 38.641791,57.8955224 C38.6865672,57.8955224 38.7313433,57.8955224 38.7313433,57.8955224 C38.7313433,57.8955224 38.7761194,57.8955224 38.7761194,57.8955224 C38.8656716,57.8955224 38.9552239,57.8955224 39.0447761,57.8955224 C39.0895522,57.8955224 39.1343284,57.8955224 39.1343284,57.8955224 C39.1343284,57.8955224 39.1343284,57.8955224 39.1791045,57.8955224 C39.3134328,57.8955224 39.4925373,57.8507463 39.6268657,57.8507463 C39.6268657,57.8507463 39.6268657,57.8507463 39.6716418,57.8507463 C39.7164179,57.8507463 39.761194,57.8507463 39.8059701,57.8059701 C39.8955224,57.8059701 39.9402985,57.761194 40.0298507,57.761194 C40.0746269,57.761194 40.119403,57.7164179 40.2089552,57.7164179 C40.2985075,57.7164179 40.3432836,57.6716418 40.4328358,57.6716418 C40.4328358,57.6716418 40.4776119,57.6716418 40.4776119,57.6716418 C40.5223881,57.6716418 40.5223881,57.6716418 40.5671642,57.6268657 C40.6567164,57.5820896 40.7910448,57.5373134 40.880597,57.4925373 C40.9253731,57.4925373 40.9701493,57.4477612 41.0149254,57.4477612 C41.1492537,57.4029851 41.2835821,57.3134328 41.3731343,57.2686567 L75.6268657,37.3432836 C75.6268657,37.3432836 75.6716418,37.3432836 75.6716418,37.2985075 C75.7164179,37.2985075 75.761194,37.2537313 75.761194,37.2089552 C75.8059701,37.1641791 75.8507463,37.1641791 75.8955224,37.119403 C75.9402985,37.0746269 75.9850746,37.0746269 75.9850746,37.0298507 C76.0298507,36.9850746 76.0746269,36.9850746 76.119403,36.9402985 C76.119403,36.9402985 76.119403,36.9402985 76.1641791,36.9402985 C76.1641791,36.9402985 76.2089552,36.8955224 76.2089552,36.8955224 C76.2537313,36.8507463 76.3432836,36.761194 76.3880597,36.7164179 C76.3880597,36.7164179 76.4328358,36.6716418 76.4328358,36.6716418 C76.4328358,36.6716418 76.4328358,36.6268657 76.4776119,36.6268657 C76.5223881,36.5820896 76.5223881,36.5373134 76.5671642,36.4925373 C76.5671642,36.4925373 76.6119403,36.4477612 76.6119403,36.4477612 C76.6119403,36.4477612 76.6119403,36.4477612 76.6119403,36.4029851 C76.6119403,36.358209 76.6567164,36.3134328 76.6567164,36.2686567 C76.6567164,36.2238806 76.7014925,36.2238806 76.7014925,36.1791045 C76.7014925,36.1791045 76.7014925,36.1791045 76.7014925,36.1343284 C76.7014925,36.0895522 76.7462687,36.0447761 76.7462687,36 C76.7462687,35.9552239 76.7462687,35.9552239 76.7910448,35.9104478 C76.7910448,35.9104478 76.7910448,35.9104478 76.7910448,35.9104478 C76.7910448,35.8656716 76.7910448,35.8208955 76.7910448,35.7761194 C76.7910448,35.7313433 76.7910448,35.7313433 76.7910448,35.6865672 C76.7910448,35.6865672 76.7910448,35.641791 76.7910448,35.641791 L76.8358209,22.119403 C76.7910448,22.3432836 76.7910448,22.3880597 76.7910448,22.4328358 Z" fill="url(#linearGradient-8)"></path>
                                        <path d="M75.6268657,20.641791 C77.1940299,21.5373134 77.1940299,23.0149254 75.6268657,23.9104478 L41.3731343,43.8358209 C39.8507463,44.7313433 37.2985075,44.7313433 35.7313433,43.8358209 L1.25373134,23.9104478 C-0.313432836,23.0149254 -0.313432836,21.5373134 1.25373134,20.641791 L35.5074627,0.71641791 C37.0298507,-0.179104478 39.5820896,-0.179104478 41.1492537,0.71641791 L75.6268657,20.641791 Z" fill="url(#linearGradient-9)"></path>
                                        <path d="M67.3880597,21.0447761 C68.5970149,21.761194 68.5970149,22.880597 67.3880597,23.5970149 L40.7462687,39.0895522 C39.5373134,39.8059701 37.5671642,39.8059701 36.358209,39.0895522 L9.53731343,23.5970149 C8.32835821,22.880597 8.32835821,21.761194 9.53731343,21.0447761 L36.1791045,5.55223881 C37.3880597,4.8358209 39.358209,4.8358209 40.5671642,5.55223881 L67.3880597,21.0447761 Z" fill="url(#linearGradient-10)"></path>
                                        <path d="M58.2985075,21.4029851 C59.1044776,21.8955224 59.1492537,22.6567164 58.2985075,23.1492537 L40.0298507,33.761194 C39.2238806,34.2537313 37.8358209,34.2537313 37.0298507,33.761194 L18.6268657,23.1492537 C17.8208955,22.6567164 17.7761194,21.8955224 18.6268657,21.4029851 L36.8955224,10.7910448 C37.7014925,10.2985075 39.0895522,10.2985075 39.8955224,10.7910448 L58.2985075,21.4029851 Z" fill="url(#linearGradient-11)"></path>
                                        <path d="M40.0298507,33.761194 L56.238806,24.358209 L39.8955224,14.9552239 C39.0895522,14.4626866 37.7014925,14.4626866 36.8955224,14.9552239 L20.6865672,24.358209 L37.0298507,33.761194 C37.8358209,34.2537313 39.2238806,34.2537313 40.0298507,33.761194 Z" fill="url(#linearGradient-12)"></path>
                                    </g>
                                    <g transform="translate(46.567164, 31.343284)" fill="#AEBDE6">
                                        <g transform="translate(17.910448, 0.000000)">
                                            <g opacity="0.43">
                                                <polygon points="0.134328358 0.71641791 0.134328358 2.05970149 1.34328358 1.3880597 1.34328358 0"></polygon>
                                            </g>
                                            <g opacity="0.13" transform="translate(0.000000, 4.029851)">
                                                <polygon points="0.134328358 1.02985075 0.134328358 2.37313433 1.34328358 1.70149254 1.34328358 0.358208955"></polygon>
                                            </g>
                                            <g opacity="0.13" transform="translate(0.000000, 6.268657)">
                                                <polygon points="0.134328358 0.940298507 0.134328358 2.28358209 1.34328358 1.6119403 1.34328358 0.223880597"></polygon>
                                            </g>
                                            <g opacity="0.43" transform="translate(0.000000, 8.507463)">
                                                <polygon points="0.134328358 0.71641791 0.134328358 2.05970149 1.34328358 1.3880597 1.34328358 0.0447761194"></polygon>
                                            </g>
                                        </g>
                                        <g transform="translate(15.671642, 1.343284)">
                                            <g opacity="0.22">
                                                <polygon points="0.268656716 0.671641791 0.268656716 2.01492537 1.43283582 1.34328358 1.43283582 0"></polygon>
                                            </g>
                                            <g opacity="0.43" transform="translate(0.000000, 1.791045)">
                                                <polygon points="0.268656716 0.895522388 0.268656716 2.28358209 1.43283582 1.56716418 1.43283582 0.223880597"></polygon>
                                            </g>
                                            <g opacity="0.22" transform="translate(0.000000, 4.029851)">
                                                <polygon points="0.268656716 0.895522388 0.268656716 2.23880597 1.43283582 1.56716418 1.43283582 0.223880597"></polygon>
                                            </g>
                                            <g opacity="0.13" transform="translate(0.000000, 8.507463)">
                                                <polygon points="0.268656716 0.671641791 0.268656716 2.05970149 1.43283582 1.34328358 1.43283582 0"></polygon>
                                            </g>
                                        </g>
                                        <g transform="translate(9.850746, 6.716418)">
                                            <g opacity="0.22">
                                                <polygon points="0.313432836 1.02985075 0.313432836 2.37313433 1.47761194 1.70149254 1.47761194 0.358208955"></polygon>
                                            </g>
                                            <g opacity="0.13" transform="translate(0.000000, 2.238806)">
                                                <polygon points="0.313432836 0.940298507 0.313432836 2.28358209 1.47761194 1.6119403 1.47761194 0.223880597"></polygon>
                                            </g>
                                            <g opacity="0.13" transform="translate(0.000000, 4.477612)">
                                                <polygon points="0.313432836 0.805970149 0.313432836 2.19402985 1.47761194 1.47761194 1.47761194 0.134328358"></polygon>
                                            </g>
                                            <g opacity="0.43" transform="translate(0.000000, 6.268657)">
                                                <polygon points="0.313432836 1.07462687 0.313432836 2.41791045 1.47761194 1.74626866 1.47761194 0.358208955"></polygon>
                                            </g>
                                        </g>
                                        <g transform="translate(8.059701, 5.820896)">
                                            <g opacity="0.22">
                                                <polygon points="0 0.985074627 0 2.37313433 1.1641791 1.70149254 1.1641791 0.313432836"></polygon>
                                            </g>
                                            <g opacity="0.43" transform="translate(0.000000, 2.238806)">
                                                <polygon points="0 0.805970149 0 2.14925373 1.1641791 1.47761194 1.1641791 0.134328358"></polygon>
                                            </g>
                                            <g opacity="0.22" transform="translate(0.000000, 4.477612)">
                                                <polygon points="0 0.805970149 0 2.14925373 1.1641791 1.47761194 1.1641791 0.0895522388"></polygon>
                                            </g>
                                            <g opacity="0.13" transform="translate(0.000000, 8.507463)">
                                                <polygon points="0 1.02985075 0 2.37313433 1.1641791 1.70149254 1.1641791 0.358208955"></polygon>
                                            </g>
                                        </g>
                                        <g transform="translate(2.238806, 9.402985)">
                                            <g opacity="0.43">
                                                <polygon points="0 1.02985075 0 2.37313433 1.20895522 1.70149254 1.20895522 0.358208955"></polygon>
                                            </g>
                                            <g opacity="0.22" transform="translate(0.000000, 2.238806)">
                                                <polygon points="0 1.02985075 0 2.37313433 1.20895522 1.70149254 1.20895522 0.358208955"></polygon>
                                            </g>
                                            <g opacity="0.13" transform="translate(0.000000, 4.477612)">
                                                <polygon points="0 0.895522388 0 2.28358209 1.20895522 1.6119403 1.20895522 0.223880597"></polygon>
                                            </g>
                                            <g opacity="0.43" transform="translate(0.000000, 8.507463)">
                                                <polygon points="0 1.07462687 0 2.41791045 1.20895522 1.74626866 1.20895522 0.358208955"></polygon>
                                            </g>
                                        </g>
                                        <g transform="translate(0.000000, 10.746269)">
                                            <g opacity="0.22">
                                                <polygon points="0.134328358 0.985074627 0.134328358 2.37313433 1.34328358 1.65671642 1.34328358 0.313432836"></polygon>
                                            </g>
                                            <g opacity="0.43" transform="translate(0.000000, 2.238806)">
                                                <polyline points="0.134328358 0.805970149 0.134328358 2.14925373 1.34328358 1.47761194 1.34328358 0.0895522388"></polyline>
                                            </g>
                                            <g opacity="0.22" transform="translate(0.000000, 4.477612)">
                                                <polygon points="0.134328358 0.805970149 0.134328358 2.14925373 1.34328358 1.47761194 1.34328358 0.0895522388"></polygon>
                                            </g>
                                            <g opacity="0.13" transform="translate(0.000000, 6.716418)">
                                                <polygon points="0.134328358 0.671641791 0.134328358 2.05970149 1.34328358 1.34328358 1.34328358 0"></polygon>
                                            </g>
                                            <g opacity="0.13" transform="translate(0.000000, 8.507463)">
                                                <polygon points="0.134328358 1.02985075 0.134328358 2.37313433 1.34328358 1.70149254 1.34328358 0.313432836"></polygon>
                                            </g>
                                        </g>
                                    </g>
                                    <g transform="translate(47.462687, 61.791045)" fill="#AEBDE6">
                                        <g transform="translate(17.910448, 0.000000)">
                                            <g opacity="0.43">
                                                <polygon points="0.313432836 0.76119403 0.313432836 2.10447761 1.47761194 1.43283582 1.47761194 0.0447761194"></polygon>
                                            </g>
                                            <g opacity="0.13" transform="translate(0.000000, 4.431189)">
                                                <polygon points="0.313432836 0.673289073 0.313432836 2.01657266 1.47761194 1.34493086 1.47761194 0.00164728198"></polygon>
                                            </g>
                                            <g opacity="0.13" transform="translate(0.000000, 6.268657)">
                                                <polygon points="0.313432836 0.985074627 0.313432836 2.32835821 1.47761194 1.65671642 1.47761194 0.268656716"></polygon>
                                            </g>
                                            <g opacity="0.43" transform="translate(0.000000, 8.507463)">
                                                <polygon points="0.313432836 0.76119403 0.313432836 2.10447761 1.47761194 1.43283582 1.47761194 0.0895522388"></polygon>
                                            </g>
                                        </g>
                                        <g transform="translate(16.119403, 1.343284)">
                                            <g opacity="0.22">
                                                <polygon points="0 0.71641791 0 2.05970149 1.1641791 1.3880597 1.1641791 0"></polygon>
                                            </g>
                                            <g opacity="0.43" transform="translate(0.000000, 1.791045)">
                                                <polygon points="0 0.940298507 0 2.32835821 1.1641791 1.6119403 1.1641791 0.268656716"></polygon>
                                            </g>
                                            <g opacity="0.22" transform="translate(0.000000, 4.029851)">
                                                <polygon points="0 0.940298507 0 2.28358209 1.1641791 1.6119403 1.1641791 0.268656716"></polygon>
                                            </g>
                                            <g opacity="0.13" transform="translate(0.000000, 8.507463)">
                                                <polygon points="0 0.71641791 0 2.10447761 1.1641791 1.3880597 1.1641791 0.0447761194"></polygon>
                                            </g>
                                        </g>
                                        <g transform="translate(10.298507, 7.117756)">
                                            <g opacity="0.22">
                                                <polygon points="0 0.673289073 0 2.01657266 1.20895522 1.34493086 1.20895522 0.00164728198"></polygon>
                                            </g>
                                            <g opacity="0.13" transform="translate(0.000000, 1.837468)">
                                                <polygon points="0 0.985074627 0 2.32835821 1.20895522 1.65671642 1.20895522 0.268656716"></polygon>
                                            </g>
                                            <g opacity="0.13" transform="translate(0.000000, 4.076274)">
                                                <polygon points="0 0.850746269 0 2.23880597 1.20895522 1.52238806 1.20895522 0.179104478"></polygon>
                                            </g>
                                            <g opacity="0.43" transform="translate(0.000000, 6.268657)">
                                                <polygon points="0 0.718065192 0 2.06134877 1.20895522 1.38970698 1.20895522 0.00164728198"></polygon>
                                            </g>
                                        </g>
                                        <g transform="translate(8.059701, 5.820896)">
                                            <g opacity="0.22">
                                                <polygon points="0.134328358 1.02985075 0.134328358 2.41791045 1.34328358 1.74626866 1.34328358 0.358208955"></polygon>
                                            </g>
                                            <g opacity="0.43" transform="translate(0.000000, 2.238806)">
                                                <polygon points="0.134328358 0.850746269 0.134328358 2.19402985 1.34328358 1.52238806 1.34328358 0.179104478"></polygon>
                                            </g>
                                            <g opacity="0.22" transform="translate(0.000000, 4.477612)">
                                                <polygon points="0.134328358 0.850746269 0.134328358 2.19402985 1.34328358 1.52238806 1.34328358 0.134328358"></polygon>
                                            </g>
                                            <g opacity="0.13" transform="translate(0.000000, 8.908800)">
                                                <polygon points="0.134328358 0.673289073 0.134328358 2.01657266 1.34328358 1.34493086 1.34328358 0.00164728198"></polygon>
                                            </g>
                                        </g>
                                        <g transform="translate(2.238806, 9.804323)">
                                            <g opacity="0.43">
                                                <polygon points="0.179104478 0.673289073 0.179104478 2.01657266 1.34328358 1.34493086 1.34328358 0.00164728198"></polygon>
                                            </g>
                                            <g opacity="0.22" transform="translate(0.000000, 2.238806)">
                                                <polygon points="0.179104478 0.673289073 0.179104478 2.01657266 1.34328358 1.34493086 1.34328358 0.00164728198"></polygon>
                                            </g>
                                            <g opacity="0.13" transform="translate(0.000000, 4.076274)">
                                                <polygon points="0.179104478 0.940298507 0.179104478 2.32835821 1.34328358 1.65671642 1.34328358 0.268656716"></polygon>
                                            </g>
                                            <g opacity="0.43" transform="translate(0.000000, 8.507463)">
                                                <polygon points="0.179104478 0.673289073 0.179104478 2.06134877 1.34328358 1.38970698 1.34328358 0.00164728198"></polygon>
                                            </g>
                                        </g>
                                        <g transform="translate(0.000000, 10.746269)">
                                            <g opacity="0.22">
                                                <polygon points="0.313432836 1.02985075 0.313432836 2.41791045 1.47761194 1.70149254 1.47761194 0.358208955"></polygon>
                                            </g>
                                            <g opacity="0.43" transform="translate(0.000000, 2.238806)">
                                                <polyline points="0.313432836 0.850746269 0.313432836 2.19402985 1.47761194 1.52238806 1.47761194 0.134328358"></polyline>
                                            </g>
                                            <g opacity="0.22" transform="translate(0.000000, 4.477612)">
                                                <polygon points="0.313432836 0.805970149 0.313432836 2.19402985 1.47761194 1.52238806 1.47761194 0.134328358"></polygon>
                                            </g>
                                            <g opacity="0.13" transform="translate(0.000000, 6.716418)">
                                                <polygon points="0.313432836 0.71641791 0.313432836 2.05970149 1.47761194 1.3880597 1.47761194 0.0447761194"></polygon>
                                            </g>
                                            <g opacity="0.13" transform="translate(0.000000, 8.507463)">
                                                <polygon points="0.313432836 1.07462687 0.313432836 2.41791045 1.47761194 1.74626866 1.47761194 0.358208955"></polygon>
                                            </g>
                                        </g>
                                    </g>
                                    <g transform="translate(8.013278, 34.925373)">
                                        <path d="M1.30015474,0.492537313 C2.01657266,0.895522388 2.59866221,1.88059701 2.59866221,2.73134328 C2.59866221,3.53731343 2.01657266,3.89552239 1.30015474,3.44776119 C0.583736834,3.04477612 0.00164728198,2.05970149 0.00164728198,1.20895522 C0.00164728198,0.402985075 0.583736834,0.0895522388 1.30015474,0.492537313 Z" fill="url(#linearGradient-13)"></path>
                                        <g opacity="0.35" transform="translate(3.180752, 2.238806)" fill="url(#linearGradient-14)">
                                            <path d="M11.7313433,6.44776119 C12.2238806,6.76119403 12.6716418,7.47761194 12.6716418,8.05970149 C12.6716418,8.64179104 12.2686567,8.86567164 11.7313433,8.59701493 L1.25373134,2.55223881 C0.76119403,2.23880597 0.313432836,1.52238806 0.313432836,0.940298507 C0.313432836,0.358208955 0.71641791,0.134328358 1.25373134,0.402985075 L11.7313433,6.44776119 Z"></path>
                                        </g>
                                    </g>
                                    <g transform="translate(8.013278, 63.983427)">
                                        <path d="M1.30015474,0.18075176 C2.01657266,0.583736834 2.59866221,1.56881146 2.59866221,2.41955773 C2.59866221,3.22552788 2.01657266,3.58373683 1.30015474,3.13597564 C0.583736834,2.73299057 0.00164728198,1.74791594 0.00164728198,0.89716967 C0.00164728198,0.0911995208 0.583736834,-0.222233315 1.30015474,0.18075176 Z" fill="url(#linearGradient-15)"></path>
                                        <g opacity="0.35" transform="translate(3.180752, 1.837468)" fill="url(#linearGradient-16)">
                                            <path d="M11.7313433,6.53731343 C12.2238806,6.85074627 12.6716418,7.56716418 12.6716418,8.14925373 C12.6716418,8.73134328 12.2686567,8.95522388 11.7313433,8.68656716 L1.25373134,2.64179104 C0.76119403,2.32835821 0.313432836,1.6119403 0.313432836,1.02985075 C0.313432836,0.447761194 0.71641791,0.223880597 1.25373134,0.492537313 L11.7313433,6.53731343 Z"></path>
                                        </g>
                                    </g>
                                </g>
                                <g id="编组" transform="translate(18.044776, 0.000000)">
                                    <path d="M40.2985075,11.3547147 L21.8955224,0.742774422 C21.0895522,0.250237109 19.7014925,0.250237109 18.8955224,0.742774422 L0.626865672,11.3547147 C0.223880597,11.5785953 0,11.8920282 0,12.205461 L0,12.205461 L0,46.727849 L0,46.727849 C0,47.0412819 0.223880597,47.3547147 0.626865672,47.5785953 L19.0298507,58.1905356 C19.8358209,58.6830729 21.2238806,58.6830729 22.0298507,58.1905356 L40.2985075,47.5785953 C40.7014925,47.3547147 40.9253731,47.0412819 40.9253731,46.727849 L40.9253731,46.727849 L40.9253731,12.205461 L40.9253731,12.205461 C40.9253731,11.9368043 40.7014925,11.6233714 40.2985075,11.3547147 Z" id="Path" fill="url(#linearGradient-17)" opacity="0.703380766"></path>
                                    <path d="M34.6119403,20.6233714 L21.4925373,13.0562073 C20.9104478,12.6979983 19.9253731,12.6979983 19.3432836,13.0562073 L6.31343284,20.6233714 C6,20.8024759 5.86567164,21.0263565 5.86567164,21.2502371 L5.86567164,21.2502371 L5.86567164,45.8771028 L5.86567164,45.8771028 C5.86567164,46.1009834 6,46.324864 6.31343284,46.5039685 L19.4328358,54.0711326 C20.0149254,54.4293416 21,54.4293416 21.5820896,54.0711326 L34.6119403,46.5039685 C34.9253731,46.324864 35.0597015,46.1009834 35.0597015,45.8771028 L35.0597015,45.8771028 L35.0597015,21.2502371 L35.0597015,21.2502371 C35.0597015,21.0263565 34.880597,20.8024759 34.6119403,20.6233714 Z" id="Path" fill="url(#linearGradient-18)"></path>
                                    <path d="M28.9701493,29.2651625 L21.0447761,24.6979983 C20.6865672,24.4741177 20.1044776,24.4741177 19.7462687,24.6979983 L11.8656716,29.2651625 C11.6865672,29.3547147 11.5970149,29.4890431 11.5970149,29.6233714 L11.5970149,29.6233714 L11.5970149,44.4890431 L11.5970149,44.4890431 C11.5970149,44.6233714 11.6865672,44.7576998 11.8656716,44.847252 L19.7910448,49.4144162 C20.1492537,49.6382968 20.7313433,49.6382968 21.0895522,49.4144162 L28.9701493,44.847252 C29.1492537,44.7576998 29.238806,44.6233714 29.238806,44.4890431 L29.238806,44.4890431 L29.238806,29.6233714 L29.238806,29.6233714 C29.238806,29.5338192 29.1492537,29.3994908 28.9701493,29.2651625 Z" id="Path" fill="url(#linearGradient-19)"></path>
                                </g>
                            </g>
                        </g>
                        <g id="Group" stroke="none" fill="none" transform="translate(33.311037, 0.000000)">
                            <g>
                                <path d="M2.90363853,7.56077305 C4.69484411,3.07333169 8.56007721,2.48883302 11.5391349,6.25979215 C14.5181926,10.0118965 15.498642,16.6864941 13.7074364,21.1739355 C11.9162308,25.6613768 8.05099773,26.2458755 5.07194002,22.4749164 C2.09288231,18.7228121 1.11243294,12.0482144 2.90363853,7.56077305 Z" id="Path" fill="url(#linearGradient-20)"></path>
                                <path d="M2.54539741,7.12711275 C4.44973177,2.35684945 8.56007721,1.7346412 11.7465377,5.73185787 C14.9329981,9.72907454 15.9700119,16.8561873 14.0656775,21.6264506 C12.1613432,26.3967139 8.05099773,27.0377769 4.86453727,23.0217055 C1.67807681,19.0244888 0.641063051,11.897376 2.54539741,7.12711275 Z M13.7074364,21.1739355 C15.498642,16.6864941 14.5181926,10.0118965 11.5391349,6.25979215 C8.56007721,2.50768782 4.69484411,3.09218648 2.90363853,7.56077305 C1.11243294,12.0482144 2.09288231,18.7228121 5.07194002,22.4749164 C8.05099773,26.2458755 11.9162308,25.6613768 13.7074364,21.1739355 L13.7074364,21.1739355 Z" id="Shape" fill="#FFFFFF"></path>
                                <path d="M6.4671949,0.697627438 L10.0873157,0.188547956 C10.0496061,0.188547956 10.0118965,0.207402752 9.97418689,0.207402752 L6.35406613,0.716482234 C6.39177572,0.716482234 6.42948531,0.716482234 6.4671949,0.697627438 Z" id="Path" fill="url(#linearGradient-21)"></path>
                                <path d="M13.4246145,0.942739781 C13.1229378,0.773046621 12.821261,0.622208256 12.5384391,0.509079482 C12.2556172,0.395950708 11.99165,0.320531526 11.7088281,0.263967139 C11.4448609,0.207402752 11.1808938,0.169693161 10.9169267,0.150838365 C10.6529595,0.131983569 10.3889924,0.150838365 10.1250253,0.169693161 L6.50490449,0.678772643 C6.76887163,0.641063051 7.03283877,0.641063051 7.29680591,0.659917847 C7.56077305,0.678772643 7.82474019,0.716482234 8.08870732,0.773046621 C8.37152926,0.829611008 8.6354964,0.923884986 8.91831833,1.01815896 C9.21999506,1.13128774 9.52167179,1.2821261 9.80449373,1.45181926 C10.14388,1.65922202 10.5021212,1.88547956 10.8415075,2.1683015 C11.3317322,2.56425221 11.8031021,3.0356221 12.2556172,3.58241117 C12.3498911,3.69553994 12.4630199,3.82752351 12.5007295,3.8652331 C13.1606473,4.69484411 13.745146,5.63758389 14.2542255,6.65574286 C14.6501762,7.44764427 14.9895625,8.27725528 15.2723845,9.14457588 C15.4232228,9.61594577 15.6494804,10.2947184 15.7814639,10.8415075 L15.7626091,10.8415075 C15.8945927,11.3317322 15.9888667,11.8408117 16.0831407,12.3310363 C16.1585599,12.8024062 16.233979,13.2549213 16.2905434,13.7262912 C16.3471078,14.1788063 16.3848174,14.6313214 16.422527,15.0838365 C16.4413818,15.5363516 16.4602366,15.9888667 16.4602366,16.4413818 C16.4602366,16.9127517 16.4413818,17.3652668 16.422527,17.8366367 C16.3848174,18.3268613 16.3471078,18.8359408 16.2905434,19.3073107 C16.2151242,19.8918094 16.1019955,20.4763081 15.9700119,21.0419519 L15.9700119,21.0419519 C15.8003187,21.7772889 15.5740612,22.4749164 15.310094,23.153689 C14.1410967,26.0761824 12.3121815,27.7165496 10.2758636,27.9993715 L13.8959844,27.490292 C15.9323023,27.2074701 17.7800723,25.5482481 18.9302148,22.6446095 C19.1941819,21.9846917 19.4204395,21.2682095 19.5901327,20.5328724 C19.7221162,19.9672286 19.835245,19.3827299 19.9106642,18.7982312 C19.9672286,18.3080066 20.023793,17.8177819 20.0426478,17.3275572 C20.0615025,16.8750421 20.0803573,16.4036722 20.0803573,15.9323023 C20.0803573,15.4797872 20.0615025,15.0272721 20.0426478,14.574757 C20.0049382,14.1222419 19.9672286,13.6697268 19.9106642,13.2172117 C19.8540998,12.7458418 19.7786806,12.274472 19.7032614,11.8219569 C19.6089875,11.3128774 19.4958587,10.8226527 19.3827299,10.332428 C19.2318915,9.74792934 19.0810532,9.18228547 18.8925052,8.6354964 C18.6096833,7.7681758 18.270297,6.93856479 17.8743463,6.14666337 L17.8743463,6.14666337 C17.3652668,5.12850441 16.7807681,4.18576463 16.1208503,3.35615362 C16.0831407,3.29958923 16.0454311,3.26187964 15.9888667,3.20531526 L15.9888667,3.20531526 L15.9888667,3.20531526 C15.498642,2.6019618 14.9707077,2.09288231 14.4616282,1.65922202 C14.1033871,1.39525488 13.7640008,1.15014253 13.4246145,0.942739781 Z" id="Path" fill="url(#linearGradient-22)"></path>
                                <path d="M1.31983569,5.56216471 C3.62012076,-0.226257548 8.6354964,-0.999304168 12.4818747,3.8652331 C16.3471078,8.72977038 17.6103791,17.3652668 15.2912393,23.1725438 C12.9909542,28.9798209 7.97557855,29.7340127 4.12920024,24.8694754 C0.263967139,20.0049382 -0.999304168,11.3694418 1.31983569,5.56216471 Z M14.0656775,21.6264506 C15.9700119,16.8561873 14.9329981,9.72907454 11.7465377,5.73185787 C8.56007721,1.7346412 4.44973177,2.35684945 2.54539741,7.12711275 C0.641063051,11.897376 1.67807681,19.0244888 4.86453727,23.0217055 C8.05099773,27.0377769 12.1613432,26.3967139 14.0656775,21.6264506 L14.0656775,21.6264506 Z" id="Shape" fill="url(#linearGradient-23)"></path>
                            </g>
                            <path d="M12.2556172,17.0070257 C12.5384391,17.5726695 12.6327131,18.2137326 12.5761487,18.9490696 C12.5384391,19.3073107 12.4630199,19.6089875 12.3498911,19.835245 C12.2367624,20.0615025 12.0670692,20.2123409 11.897376,20.3066149 C11.7088281,20.3820341 11.4825705,20.4197437 11.1997486,20.3820341 C10.9169267,20.3443245 10.6341047,20.2877601 10.332428,20.1746313 C10.0307513,20.0615025 9.69136495,19.9106642 9.29541424,19.7032614 L9.29541424,21.7772889 L8.2018361,21.1362259 L8.2018361,19.0810532 C7.82474019,18.8547956 7.54191825,18.6851025 7.3345155,18.5719737 L7.3345155,20.6271464 L6.24093735,19.9860834 L6.24093735,17.9120558 C6.14666337,17.8554915 6.0335346,17.7800723 5.86384144,17.6857983 C5.69414828,17.5915243 5.56216471,17.5161051 5.46789073,17.4595408 L4.05378106,16.6299297 L4.28003861,15.2535297 L5.07194002,15.7060448 C5.31705237,15.8380283 5.44903594,15.7814639 5.48674553,15.5363516 L5.48674553,12.2556172 L5.5998743,12.3121815 C5.56216471,12.2933267 5.52445512,12.274472 5.48674553,12.2367624 L5.48674553,9.8987677 C5.43018114,9.4839622 5.22277839,9.18228547 4.86453727,8.97488272 L4.07263586,8.52236762 L4.07263586,7.18367713 L5.58101951,8.06985253 C5.88269624,8.23954569 6.10895378,8.37152926 6.27864694,8.46580324 L6.27864694,6.41063051 L7.37222509,7.05169356 L7.37222509,9.0691567 C7.7681758,9.27655945 8.05099773,9.44625261 8.23954569,9.55938138 L8.23954569,7.56077305 L9.33312384,8.2018361 L9.33312384,10.2570088 C9.71021975,10.5021212 10.0307513,10.7660883 10.332428,11.0112006 C10.6152499,11.256313 10.8980719,11.5391349 11.1431842,11.8408117 C11.3882966,12.1424884 11.5768445,12.4630199 11.7276829,12.821261 C11.8785212,13.1606473 11.9539404,13.5377433 11.99165,13.9148392 C12.0670692,14.9518529 11.7653925,15.4797872 11.0489102,15.4797872 C11.5579897,15.9323023 11.9727952,16.4413818 12.2556172,17.0070257 Z M10.332428,17.8366367 C10.3701376,17.7423627 10.4078472,17.6103791 10.4078472,17.4595408 C10.4078472,17.2709928 10.3701376,17.06359 10.2947184,16.8750421 C10.2192992,16.6864941 10.14388,16.4979462 10.0307513,16.3471078 C9.9176225,16.1962694 9.78563893,16.0265763 9.61594577,15.8568831 C9.44625261,15.68719 9.29541424,15.5552064 9.14457588,15.4420776 C8.99373751,15.3289488 8.82404435,15.1969653 8.6166416,15.0649817 C8.40923885,14.9329981 8.23954569,14.8198694 8.12641692,14.763305 C8.01328814,14.6878858 7.86244978,14.6124666 7.67390182,14.4993378 C7.48535386,14.4050639 7.37222509,14.3296447 7.3345155,14.3107899 L7.3345155,17.06359 C7.37222509,17.0824448 7.46649907,17.1390092 7.59848264,17.2144284 C7.73046621,17.2898476 7.84359498,17.3652668 7.93786896,17.4218312 C8.03214294,17.4783955 8.14527171,17.5349599 8.31496487,17.6292339 C8.48465803,17.7046531 8.6166416,17.7800723 8.72977038,17.8366367 C8.84289915,17.8932011 8.97488272,17.9497654 9.14457588,18.0063298 C9.29541424,18.0628942 9.42739781,18.1006038 9.54052659,18.1194586 C9.65365536,18.1383134 9.76678414,18.1383134 9.87991291,18.1383134 C9.99304168,18.1383134 10.0873157,18.1006038 10.1627348,18.0628942 C10.238154,18.0063298 10.2947184,17.9309106 10.332428,17.8366367 L10.332428,17.8366367 Z M7.35337029,10.5398308 L7.35337029,13.0475186 C7.37222509,13.0663734 7.46649907,13.104083 7.59848264,13.1983569 C7.67390182,13.2360665 7.73046621,13.2737761 7.78703059,13.3114857 C7.84359498,13.3491953 7.88130457,13.3680501 7.93786896,13.3869049 C8.01328814,13.4246145 8.14527171,13.5000337 8.29611008,13.5754529 C8.44694844,13.650872 8.57893201,13.7262912 8.69206078,13.7640008 C8.80518956,13.8017104 8.91831833,13.83942 9.0503019,13.8771296 C9.18228547,13.9148392 9.31426904,13.933694 9.38968822,13.933694 C9.4651074,13.933694 9.55938138,13.8959844 9.65365536,13.8582748 C9.74792934,13.8205652 9.80449373,13.7640008 9.84220332,13.650872 C9.87991291,13.5565981 9.8987677,13.4246145 9.8987677,13.2737761 C9.8987677,13.0852282 9.86105811,12.915535 9.80449373,12.7458418 C9.74792934,12.5761487 9.67251016,12.4253103 9.59709097,12.274472 C9.502817,12.1424884 9.38968822,11.99165 9.25770465,11.8408117 C9.10686629,11.6899733 8.99373751,11.5768445 8.86175394,11.4825705 C8.74862517,11.3882966 8.59778681,11.2751678 8.42809365,11.162039 C8.27725528,11.067765 8.16412651,10.9923459 8.05099773,10.9357815 C8.03214294,10.9357815 8.01328814,10.9169267 8.01328814,10.9169267 C7.91901416,10.8603623 7.78703059,10.7849431 7.63619223,10.7095239 C7.48535386,10.6152499 7.39107989,10.5586856 7.35337029,10.5398308 L7.35337029,10.5398308 Z" id="Shape" fill="#FFFFFF"></path>
                        </g>
                    </g>
                </g>
            </g>
        </g>
    </g>
</svg>