<?xml version="1.0" encoding="UTF-8"?>
<svg width="287px" height="42px" viewBox="0 0 287 42" version="1.1" xmlns="http://www.w3.org/2000/svg" xmlns:xlink="http://www.w3.org/1999/xlink">
    <!-- Generator: Sketch 58 (84663) - https://sketch.com -->
    <title>形状结合</title>
    <desc>Created with Sketch.</desc>
    <g id="组件" stroke="none" stroke-width="1" fill="none" fill-rule="evenodd">
        <g id="logo1" fill="#FFFFFF">
            <g id="logo">
                <path d="M58.8620763,0 C69.7240883,0 78.6897068,8.27629038 79.7241486,18.8192675 C84.9999759,19.9525489 89,24.6573347 89,30.2550277 C89,36.6458946 83.8516917,41.8380382 77.4723366,41.9962838 L77.1724177,42 L41.1034538,42 C33.310269,42 27,35.7155412 27,27.988589 C27,20.9485267 32.2413293,15.1446923 39.0344458,14.1488385 C41.8965341,5.76947747 49.8619598,0 58.8620763,0 Z M24.9457203,37 C25.519833,37 26,37.46875 26,38.0520833 L26,40.9479167 C26,41.53125 25.5302714,42 24.9457203,42 L22.0542797,42 C21.4697286,42 21,41.53125 21,40.9479167 L21,38.0520833 C21,37.46875 21.4697286,37 22.0542797,37 L24.9457203,37 Z M10.1565762,34 C10.6158664,34 11,34.375 11,34.8416667 L11,37.1583333 C11,37.625 10.6242171,38 10.1565762,38 L7.8434238,38 C7.37578288,38 7,37.625 7,37.1583333 L7,34.8416667 C7,34.375 7.37578288,34 7.8434238,34 L10.1565762,34 Z M58.8622008,5.2542481 C52.6553012,5.2542481 47.068992,8.92882329 44.586257,14.4234456 C46.999996,15.0416216 49.2413695,16.2778496 51.0690161,18.0636639 C53.5539928,20.5384765 49.7965755,24.2830058 47.3103534,21.8069529 C45.6551968,20.1584422 43.4481968,19.2313022 41.1034538,19.2313022 C36.2413534,19.2313022 32.2758273,23.1462516 32.2758273,27.988465 C32.2758273,32.7442104 36.100992,36.6055126 40.8438593,36.7418997 L41.1034538,36.7456279 L77.1724177,36.7456279 C80.7930883,36.7456279 83.7241727,33.8265322 83.7241727,30.2550277 C83.7241727,27.5077166 81.9655221,25.1725641 79.5517832,24.2453001 C79.3792932,25.3098676 79.1034337,26.3744352 78.7585783,27.4046459 C77.7605027,30.5859454 72.6448357,29.1692507 73.7586104,25.7562592 C74.2759559,24.1764622 74.5518153,22.5281996 74.5518153,20.845332 C74.5518153,12.2599536 67.5173374,5.2542481 58.8622008,5.2542481 Z M60.667574,13.6021877 C60.9358698,13.6021877 61.1533664,13.8196844 61.1533664,14.0879801 L61.1526931,15.5451877 L63.1046931,15.5451877 L63.1049874,14.0879801 C63.1049874,13.8196844 63.322484,13.6021877 63.5907798,13.6021877 L65.5466264,13.6021877 C65.8149221,13.6021877 66.0324188,13.8196844 66.0324188,14.0879801 L66.0327666,15.6861133 C66.4870635,15.7672998 66.8590556,15.8836073 67.148746,16.0350361 C67.8825591,16.3925811 68.4368139,16.9910714 68.811527,17.8305249 C69.0769488,18.405706 69.2096577,19.0041963 69.2096577,19.6260137 C69.2096577,20.4343763 68.9949815,21.1883186 68.5656228,21.8878632 C68.136264,22.5874077 67.5937188,23.069309 66.9379709,23.3335814 C68.4524363,24.0175805 69.2096577,25.2378789 69.2096577,26.9945131 C69.2096577,28.0049663 68.9676591,28.8521798 68.4836547,29.536179 C68.0621024,30.1269055 67.5234605,30.5349671 66.8677125,30.7603759 C66.6313213,30.8416337 66.3533379,30.908245 66.0337611,30.9602099 L66.0324188,32.548092 C66.0324188,32.8163877 65.8149221,33.0338844 65.5466264,33.0338844 L63.5907798,33.0338844 C63.322484,33.0338844 63.1049874,32.8163877 63.1049874,32.548092 L63.1046931,31.0981877 L61.1526931,31.0981877 L61.1533664,32.548092 C61.1533664,32.8163877 60.9358698,33.0338844 60.667574,33.0338844 L58.7117274,33.0338844 C58.4434317,33.0338844 58.225935,32.8163877 58.225935,32.548092 L58.2256931,31.0981877 L56.2700884,31.0984874 C56.2296699,31.0984874 56.1898277,31.0960193 56.1507045,31.0912257 L54.8084856,31.0907147 C54.5401898,31.0907147 54.3226931,30.873218 54.3226931,30.6049223 L54.3226931,28.6617526 C54.3226931,28.3934569 54.5401898,28.1759602 54.8084856,28.1759602 L55.2976931,28.1751877 L55.2976931,18.4591877 L54.8084856,18.4601119 C54.5401898,18.4601119 54.3226931,18.2426152 54.3226931,17.9743194 L54.3226931,16.0311498 C54.3226931,15.762854 54.5401898,15.5453574 54.8084856,15.5453574 L58.2256931,15.5451877 L58.225935,14.0879801 C58.225935,13.8196844 58.4434317,13.6021877 58.7117274,13.6021877 L60.667574,13.6021877 Z M19.3229167,26 C20.25625,26 21,26.7583333 21,27.6770833 L21,31.3229167 C21,32.2416667 20.25625,33 19.3375,33 L15.6625,33 C14.74375,33 14,32.2416667 14,31.3229167 L14,27.6770833 C14,26.7583333 14.74375,26 15.6625,26 L19.3229167,26 Z M2.3025,28 C2.685,28 3,28.315 3,28.6975 L3,30.3025 C3,30.685 2.685,31 2.3025,31 L0.6975,31 C0.315,31 0,30.685 0,30.3025 L0,28.6975 C0,28.315 0.315,28 0.6975,28 L2.3025,28 Z M63.2142781,24.7093455 L58.6240657,24.7093455 L58.6240657,28.3236411 L63.1440198,28.3236411 C63.6280242,28.3236411 63.9793125,28.3003233 64.1978951,28.253687 C64.4164777,28.2070507 64.6194443,28.1060069 64.8068008,27.9505525 C65.2908052,27.5774621 65.5328038,27.0644704 65.5328038,26.4115622 C65.5328038,25.7897448 65.3064181,25.3311613 64.8536397,25.035798 C64.5257658,24.8181619 63.9793174,24.7093455 63.2142781,24.7093455 Z M10.9457203,21 C11.519833,21 12,21.46875 12,22.0520833 L12,24.9479167 C12,25.53125 11.5302714,26 10.9457203,26 L8.05427975,26 C7.4697286,26 7,25.53125 7,24.9479167 L7,22.0520833 C7,21.46875 7.4697286,21 8.05427975,21 L10.9457203,21 Z M63.2142781,18.3202036 L58.6240657,18.3202036 L58.6240657,21.9344992 L63.1440198,21.9344992 L63.5254232,21.9287887 C63.8153782,21.9192712 64.035631,21.8978568 64.1861854,21.8645451 C64.3969615,21.8179088 64.6038312,21.716865 64.8068008,21.5614107 C65.2908052,21.1883202 65.5328038,20.6753286 65.5328038,20.0224203 C65.5328038,19.4006029 65.3064181,18.9420194 64.8536397,18.6466562 C64.5257658,18.4290201 63.9793174,18.3202036 63.2142781,18.3202036 Z M22.2049861,13 C23.1911357,13 24,13.8111111 24,14.8 L24,19.2 C24,20.1888889 23.1911357,21 22.2049861,21 L17.7950139,21 C16.8088643,21 16,20.1888889 16,19.2 L16,14.8 C16,13.8111111 16.8088643,13 17.7950139,13 L22.2049861,13 Z M31.7348643,6 C32.4237996,6 33,6.5625 33,7.2625 L33,10.7375 C33,11.4375 32.4363257,12 31.7348643,12 L28.2651357,12 C27.5636743,12 27,11.4375 27,10.7375 L27,7.2625 C27,6.5625 27.5636743,6 28.2651357,6 L31.7348643,6 Z M106.56,24.892 L106.56,34 L101.448,34 L101.448,9.988 L113.184,9.988 C116.544017,9.988 118.883993,10.4199957 120.204,11.284 C121.116005,11.8600029 121.817998,12.6219953 122.31,13.57 C122.802002,14.5180047 123.048,15.5559944 123.048,16.684 C123.048,18.9640114 122.472006,20.7279938 121.32,21.976 C120.599996,22.7200037 119.652006,23.2839981 118.476,23.668 C119.412005,24.0040017 120.119998,24.3579981 120.6,24.73 C121.080002,25.1020019 121.511998,25.6479964 121.896,26.368 C122.184001,26.9440029 122.393999,27.4959974 122.526,28.024 C122.631601,28.4464021 122.718,29.0300775 122.7852,29.7750383 L122.832,30.364 C122.976001,32.0920086 123.167999,33.3039965 123.408,34 L117.684,34 C117.515999,33.4479972 117.336001,32.3080086 117.144,30.58 C117.023999,29.187993 116.778002,28.1200037 116.406,27.376 C116.033998,26.6319963 115.476004,26.0440022 114.732,25.612 C113.795995,25.1079975 112.440009,24.8679999 110.664,24.892 L106.56,24.892 Z M106.56,20.608 L113.724,20.608 C114.924006,20.608 115.775997,20.4280018 116.28,20.068 C117.048004,19.5399974 117.432,18.6160066 117.432,17.296 C117.432,15.8319927 116.856006,14.896002 115.704,14.488 C115.295998,14.3439993 114.636005,14.272 113.724,14.272 L106.56,14.272 L106.56,20.608 Z M139.14,23.344 C139.14,22.1199939 138.894002,21.2920022 138.402,20.86 C137.909998,20.4279978 136.932007,20.212 135.468,20.212 L127.332,20.212 L127.332,16.468 L136.067512,16.4698367 C137.210699,16.4771836 138.018855,16.5065712 138.492,16.558 C139.044003,16.6180003 139.607997,16.7319992 140.184,16.9 C142.848013,17.908005 144.108001,20.3199809 143.964,24.136 L143.964,34 L133.812,34 C131.987991,34 130.728003,33.9460005 130.032,33.838 C129.335997,33.7299995 128.724003,33.5080017 128.196,33.172 C126.779993,32.2119952 126.072,30.7600097 126.072,28.816 C126.072,27.6399941 126.353997,26.5900046 126.918,25.666 C127.482003,24.7419954 128.231995,24.1120017 129.168,23.776 C129.933004,23.5059987 131.172602,23.3625623 132.886827,23.3456875 L139.14,23.344 Z M139.14,30.256 L139.14,27.088 L132.768,27.088 C132.215997,27.088 131.778002,27.2319986 131.454,27.52 C131.129998,27.8080014 130.968,28.2039975 130.968,28.708 C130.968,29.2600028 131.165998,29.6559988 131.562,29.896 C131.958002,30.1360012 132.635995,30.256 133.596,30.256 L139.14,30.256 Z M153.288,16.468 L157.536,16.468 C159.408009,16.468 160.931994,16.7559971 162.108,17.332 C163.716008,18.124004 164.879996,19.3359918 165.6,20.968 C166.104003,22.1920061 166.356,23.5359927 166.356,25 C166.356,28.5520178 165.072013,31.1199921 162.504,32.704 C161.687996,33.2080025 160.848004,33.5499991 159.984,33.73 C159.119996,33.9100009 157.896008,34 156.312,34 L148.464,34 L148.464,9.988 L153.288,9.988 L153.288,16.468 Z M153.288,20.212 L153.288,30.256 L156.852,30.256 C158.364008,30.256 159.503996,29.7880047 160.272,28.852 C161.040004,27.843995 161.424,26.6080073 161.424,25.144 C161.424,21.8559836 159.900015,20.212 156.852,20.212 L153.288,20.212 Z M174.744,16.468 L178.992,16.468 C180.864009,16.468 182.387994,16.7559971 183.564,17.332 C185.172008,18.124004 186.335996,19.3359918 187.056,20.968 C187.560003,22.1920061 187.812,23.5359927 187.812,25 C187.812,28.5520178 186.528013,31.1199921 183.96,32.704 C183.143996,33.2080025 182.304004,33.5499991 181.44,33.73 C180.575996,33.9100009 179.352008,34 177.768,34 L169.92,34 L169.92,9.988 L174.744,9.988 L174.744,16.468 Z M174.744,20.212 L174.744,30.256 L178.308,30.256 C179.820008,30.256 180.959996,29.7880047 181.728,28.852 C182.496004,27.843995 182.88,26.6080073 182.88,25.144 C182.88,21.8559836 181.356015,20.212 178.308,20.212 L174.744,20.212 Z M191.376,16.468 L196.2,16.468 L196.2,34 L191.376,34 L191.376,16.468 Z M191.376,14.668 L191.376,9.988 L196.2,9.988 L196.2,14.668 L191.376,14.668 Z M202.248,16.468 L202.248,9.988 L207.072,9.988 L207.072,16.468 L211.536,16.468 L211.536,20.212 L207.072,20.212 L207.072,26.584 C207.072,28.0720074 207.203999,29.0079981 207.468,29.392 C207.876002,29.9680029 208.595995,30.256 209.628,30.256 L211.536,30.256 L211.536,34 L208.044,34 C205.95599,34 204.468004,33.496005 203.58,32.488 C202.691996,31.479995 202.248,29.7880119 202.248,27.412 L202.248,20.212 L199.188,20.212 L199.188,16.468 L202.248,16.468 Z M220.032,25.612 L220.032,34 L214.92,34 L214.92,9.988 L226.908,9.988 C229.092011,9.988 230.651995,10.1439984 231.588,10.456 C233.172008,10.9840026 234.42,12.0759917 235.332,13.732 C236.004003,14.9800062 236.34,16.3359927 236.34,17.8 C236.34,19.0240061 236.118002,20.1819945 235.674,21.274 C235.229998,22.3660055 234.612004,23.2599965 233.82,23.956 C233.099996,24.5800031 232.338004,25.0119988 231.534,25.252 C230.729996,25.4920012 229.632007,25.612 228.24,25.612 L220.032,25.612 Z M220.032,21.328 L226.98,21.328 C228.228006,21.328 229.103997,21.1360019 229.608,20.752 C230.352004,20.151997 230.724,19.1080074 230.724,17.62 C230.724,16.011992 230.160006,14.9800023 229.032,14.524 C228.623998,14.3559992 227.976004,14.272 227.088,14.272 L220.032,14.272 L220.032,21.328 Z M247.572,16.216 C250.812016,16.216 253.199992,17.1519906 254.736,19.024 C256.152007,20.7280085 256.86,22.875987 256.86,25.468 C256.86,28.2040137 255.972009,30.3879918 254.196,32.02 C252.563992,33.5080074 250.332014,34.252 247.5,34.252 C244.571985,34.252 242.280008,33.4120084 240.624,31.732 C239.087992,30.2199924 238.32,28.0120145 238.32,25.108 C238.32,22.6599878 239.051993,20.6200082 240.516,18.988 C242.148008,17.1639909 244.499985,16.2400001 247.572,16.216 Z M247.608,19.888 C244.703985,19.888 243.252,21.687982 243.252,25.288 C243.252,26.7520073 243.491998,27.8679962 243.972,28.636 C244.764004,29.9320065 245.987992,30.58 247.644,30.58 C250.500014,30.58 251.928,28.7920179 251.928,25.216 C251.928,21.7119825 250.488014,19.9360002 247.608,19.888 Z M268.524,16.216 C271.764016,16.216 274.151992,17.1519906 275.688,19.024 C277.104007,20.7280085 277.812,22.875987 277.812,25.468 C277.812,28.2040137 276.924009,30.3879918 275.148,32.02 C273.515992,33.5080074 271.284014,34.252 268.452,34.252 C265.523985,34.252 263.232008,33.4120084 261.576,31.732 C260.039992,30.2199924 259.272,28.0120145 259.272,25.108 C259.272,22.6599878 260.003993,20.6200082 261.468,18.988 C263.100008,17.1639909 265.451985,16.2400001 268.524,16.216 Z M268.56,19.888 C265.655985,19.888 264.204,21.687982 264.204,25.288 C264.204,26.7520073 264.443998,27.8679962 264.924,28.636 C265.716004,29.9320065 266.939992,30.58 268.596,30.58 C271.452014,30.58 272.88,28.7920179 272.88,25.216 C272.88,21.7119825 271.440014,19.9360002 268.56,19.888 Z M286.2,34 L281.376,34 L281.376,9.988 L286.2,9.988 L286.2,34 Z" id="形状结合"></path>
            </g>
        </g>
    </g>
</svg>