<?xml version="1.0" encoding="UTF-8"?>
<svg width="24px" height="24px" viewBox="0 0 24 24" version="1.1" xmlns="http://www.w3.org/2000/svg" xmlns:xlink="http://www.w3.org/1999/xlink">
  <!-- Generator: Sketch 58 (84663) - https://sketch.com -->
  <title>highvoltage备份 2</title>
  <desc>Created with Sketch.</desc>
  <g id="highvoltage备份-2" stroke="none" stroke-width="1" fill="none" fill-rule="evenodd">
    <g id="safe">
      <rect id="bound" x="0" y="0" width="24" height="24"></rect>
      <path d="M6.5,16 L7.5,16 C8.32842712,16 9,16.6715729 9,17.5 L9,19.5 C9,20.3284271 8.32842712,21 7.5,21 L6.5,21 C5.67157288,21 5,20.3284271 5,19.5 L5,17.5 C5,16.6715729 5.67157288,16 6.5,16 Z M16.5,16 L17.5,16 C18.3284271,16 19,16.6715729 19,17.5 L19,19.5 C19,20.3284271 18.3284271,21 17.5,21 L16.5,21 C15.6715729,21 15,20.3284271 15,19.5 L15,17.5 C15,16.6715729 15.6715729,16 16.5,16 Z" id="Combined-Shape" fill="#4E5D78" fill-rule="nonzero" opacity="0.3"></path>
      <path d="M19,4 C20.1045695,4 21,4.8954305 21,6 L21,17 C21,18.1045695 20.1045695,19 19,19 L5,19 C3.8954305,19 3,18.1045695 3,17 L3,6 C3,4.8954305 3.8954305,4 5,4 L19,4 Z M15.5,8 C13.5670034,8 12,9.56700338 12,11.5 C12,13.4329966 13.5670034,15 15.5,15 C17.4329966,15 19,13.4329966 19,11.5 C19,9.56700338 17.4329966,8 15.5,8 Z M15.5,10 C16.3284271,10 17,10.6715729 17,11.5 C17,12.3284271 16.3284271,13 15.5,13 C14.6715729,13 14,12.3284271 14,11.5 C14,10.6715729 14.6715729,10 15.5,10 Z M7,8 L6.88337887,8.00672773 C6.38604019,8.06449284 6,8.48716416 6,9 L6,9 L6,11 C6,11.5522847 6.44771525,12 7,12 L7,12 L7.11662113,11.9932723 C7.61395981,11.9355072 8,11.5128358 8,11 L8,11 L8,9 C8,8.44771525 7.55228475,8 7,8 L7,8 Z" id="形状结合" fill="#859ABF" fill-rule="nonzero"></path>
    </g>
  </g>
</svg>
