<?xml version="1.0" encoding="UTF-8"?>
<svg width="24px" height="24px" viewBox="0 0 24 24" version="1.1" xmlns="http://www.w3.org/2000/svg" xmlns:xlink="http://www.w3.org/1999/xlink">
    <!-- Generator: Sketch 58 (84663) - https://sketch.com -->
    <title>highvoltage备份 24</title>
    <desc>Created with Sketch.</desc>
    <g id="highvoltage备份-24" stroke="none" stroke-width="1" fill="none" fill-rule="evenodd">
        <g id="angle-double-right" transform="translate(5.000000, 5.000000)" fill="#45ED78" fill-rule="nonzero">
            <path d="M7.2928955,1.70710318 C6.9023712,1.31657888 6.9023712,0.68341391 7.2928955,0.29288961 C7.6834198,-0.09763468 8.3165848,-0.09763468 8.7071091,0.29288961 L14.7071091,6.2928896 C15.085688,6.6714686 15.0989336,7.281055 14.7371564,7.675721 L9.2371564,13.675721 C8.863964,14.08284 8.2313966,14.1103429 7.8242777,13.7371505 C7.4171587,13.3639581 7.3896557,12.7313908 7.7628481,12.3242718 L12.6158645,7.0300721 L7.2928955,1.70710318 Z" id="Path-94"></path>
            <path d="M0.2928952,1.70710278 C-0.0976291,1.31657849 -0.0976291,0.68341351 0.2928952,0.29288922 C0.6834195,-0.09763507 1.3165845,-0.09763507 1.7071088,0.29288922 L7.70710878,6.29288922 C8.08568772,6.67146816 8.09893334,7.28105459 7.73715614,7.67572063 L2.2371561,13.6757206 C1.8639637,14.0828396 1.2313964,14.1103425 0.8242774,13.7371501 C0.4171584,13.3639577 0.3896555,12.7313904 0.7628479,12.3242714 L5.6158642,7.03007175 L0.2928952,1.70710278 Z" id="Path-94" opacity="0.3"></path>
        </g>
    </g>
</svg>