<?xml version="1.0" encoding="UTF-8"?>
<svg width="24px" height="24px" viewBox="0 0 24 24" version="1.1" xmlns="http://www.w3.org/2000/svg" xmlns:xlink="http://www.w3.org/1999/xlink">
    <!-- Generator: Sketch 58 (84663) - https://sketch.com -->
    <title>highvoltage备份 20</title>
    <desc>Created with Sketch.</desc>
    <g id="highvoltage备份-20" stroke="none" stroke-width="1" fill="none" fill-rule="evenodd">
        <g id="truck" transform="translate(3.000000, 4.000000)" fill="#3BA0FF" fill-rule="nonzero">
            <path d="M2.90909091,13.0909091 L1.45454545,13.0909091 C1.05454545,13.0909091 0.727272727,12.7636364 0.727272727,12.3636364 L0.727272727,8.72727273 L16.7272727,8.72727273 L16.7272727,12.3636364 C16.7272727,12.7636364 16.4,13.0909091 16,13.0909091 L14.6909091,13.0909091" id="路径" opacity="0.31921968"></path>
            <path d="M17.4545455,8.69090909 C17.4545455,8.65454545 17.4545455,8.65454545 17.4545455,8.61818182 C17.4545455,8.58181818 17.4545455,8.58181818 17.4545455,8.54545455 C17.4545455,8.50909091 17.4545455,8.50909091 17.4181818,8.47272727 C17.4181818,8.43636364 17.3818182,8.43636364 17.3818182,8.4 C17.3818182,8.4 17.3818182,8.36363636 17.3818182,8.36363636 L14.4727273,3.27272727 C14.3272727,3.05454545 14.1090909,2.90909091 13.8545455,2.90909091 L11.6727273,2.90909091 L11.6727273,1.45454545 C11.6727273,0.654545455 11.0181818,0 10.2181818,0 L1.45454545,0 C0.654545455,0 0,0.654545455 0,1.45454545 L0,12.3636364 C0,13.1636364 0.654545455,13.8181818 1.45454545,13.8181818 L2.18181818,13.8181818 C2.18181818,15.0181818 3.16363636,16 4.36363636,16 C5.56363636,16 6.54545455,15.0181818 6.54545455,13.8181818 L10.9090909,13.8181818 C10.9090909,15.0181818 11.8909091,16 13.0909091,16 C14.2909091,16 15.2727273,15.0181818 15.2727273,13.8181818 L16,13.8181818 C16.8,13.8181818 17.4545455,13.1636364 17.4545455,12.3636364 L17.4545455,8.72727273 C17.4545455,8.72727273 17.4545455,8.69090909 17.4545455,8.69090909 Z M13.3818182,4.36363636 L15.4545455,8 L11.6363636,8 L11.6363636,4.36363636 L13.3818182,4.36363636 Z M4.36363636,14.5454545 C3.96363636,14.5454545 3.63636364,14.2181818 3.63636364,13.8181818 C3.63636364,13.4181818 3.96363636,13.0909091 4.36363636,13.0909091 C4.76363636,13.0909091 5.09090909,13.4181818 5.09090909,13.8181818 C5.09090909,14.2181818 4.76363636,14.5454545 4.36363636,14.5454545 Z M13.0909091,14.5454545 C12.6909091,14.5454545 12.3636364,14.2181818 12.3636364,13.8181818 C12.3636364,13.4181818 12.6909091,13.0909091 13.0909091,13.0909091 C13.4909091,13.0909091 13.8181818,13.4181818 13.8181818,13.8181818 C13.8181818,14.2181818 13.4909091,14.5454545 13.0909091,14.5454545 Z M16,12.3636364 L14.7272727,12.3636364 C14.3272727,11.9272727 13.7454545,11.6363636 13.0909091,11.6363636 C12.4363636,11.6363636 11.8545455,11.9272727 11.4545455,12.3636364 L6,12.3636364 C5.6,11.9272727 5.01818182,11.6363636 4.36363636,11.6363636 C3.70909091,11.6363636 3.12727273,11.9272727 2.72727273,12.3636364 L1.45454545,12.3636364 L1.45454545,1.45454545 L10.1818182,1.45454545 L10.1818182,8.72727273 C10.1818182,9.12727273 10.5090909,9.45454545 10.9090909,9.45454545 L16,9.45454545 L16,12.3636364 Z" id="形状"></path>
        </g>
    </g>
</svg>