<?xml version="1.0" encoding="UTF-8"?>
<svg width="24px" height="24px" viewBox="0 0 24 24" version="1.1" xmlns="http://www.w3.org/2000/svg" xmlns:xlink="http://www.w3.org/1999/xlink">
    <!-- Generator: Sketch 58 (84663) - https://sketch.com -->
    <title>highvoltage备份 18</title>
    <desc>Created with Sketch.</desc>
    <g id="highvoltage备份-18" stroke="none" stroke-width="1" fill="none" fill-rule="evenodd">
        <g id="box" transform="translate(5.000000, 4.000000)" fill="#45ED78" fill-rule="nonzero">
            <polygon id="路径" opacity="0.16" points="0.727272727 12.3636364 0.727272727 3.63636364 7.27272727 6.54545455 7.27272727 15.2727273"></polygon>
            <path d="M14.5090909,3.45454545 C14.5090909,3.45454545 14.5090909,3.41818182 14.5090909,3.41818182 C14.5090909,3.38181818 14.4727273,3.30909091 14.4363636,3.27272727 C14.4363636,3.27272727 14.4363636,3.27272727 14.4363636,3.27272727 C14.4,3.23636364 14.3636364,3.16363636 14.3272727,3.12727273 C14.3272727,3.12727273 14.2909091,3.09090909 14.2909091,3.09090909 C14.2545455,3.05454545 14.1818182,3.01818182 14.1454545,2.98181818 C14.1454545,2.98181818 14.1454545,2.98181818 14.1454545,2.98181818 L14.1454545,2.98181818 C14.1454545,2.98181818 14.1454545,2.98181818 14.1454545,2.98181818 L7.6,0.0727272727 C7.41818182,2.63677968e-16 7.2,2.63677968e-16 7.01818182,0.0727272727 L0.472727273,2.98181818 C0.472727273,2.98181818 0.436363636,2.98181818 0.436363636,3.01818182 C0.4,3.01818182 0.4,3.01818182 0.363636364,3.05454545 C0.363636364,3.05454545 0.327272727,3.09090909 0.327272727,3.09090909 C0.290909091,3.09090909 0.290909091,3.12727273 0.254545455,3.12727273 C0.218181818,3.16363636 0.218181818,3.2 0.181818182,3.2 C0.181818182,3.23636364 0.145454545,3.23636364 0.145454545,3.27272727 C0.109090909,3.30909091 0.109090909,3.34545455 0.109090909,3.38181818 C0.109090909,3.41818182 0.109090909,3.41818182 0.0727272727,3.45454545 C0,3.49090909 0,3.56363636 0,3.63636364 L0,12.3636364 C0,12.3636364 0,12.3636364 0,12.3636364 C0,12.4363636 0,12.4727273 0.0363636364,12.5454545 C0.0363636364,12.5454545 0.0363636364,12.5818182 0.0363636364,12.5818182 C0.0727272727,12.6545455 0.0727272727,12.6909091 0.109090909,12.7636364 C0.109090909,12.7636364 0.109090909,12.7636364 0.109090909,12.7636364 C0.145454545,12.8 0.181818182,12.8363636 0.218181818,12.8727273 C0.218181818,12.8727273 0.254545455,12.9090909 0.254545455,12.9090909 C0.290909091,12.9454545 0.363636364,12.9818182 0.4,13.0181818 L6.94545455,15.9272727 C7.05454545,15.9636364 7.12727273,16 7.23636364,16 C7.30909091,16 7.34545455,16 7.41818182,15.9636364 C7.41818182,15.9636364 7.45454545,15.9636364 7.45454545,15.9636364 C7.49090909,15.9636364 7.49090909,15.9636364 7.52727273,15.9272727 L14.0727273,13.0181818 C14.0727273,13.0181818 14.0727273,13.0181818 14.0727273,13.0181818 L14.0727273,13.0181818 C14.0727273,13.0181818 14.1090909,13.0181818 14.1090909,12.9818182 C14.1454545,12.9818182 14.1818182,12.9454545 14.1818182,12.9454545 C14.2181818,12.9454545 14.2181818,12.9090909 14.2181818,12.9090909 C14.2545455,12.9090909 14.2545455,12.8727273 14.2909091,12.8727273 C14.2909091,12.8727273 14.3272727,12.8363636 14.3272727,12.8 C14.3272727,12.7636364 14.3636364,12.7636364 14.3636364,12.7272727 C14.3636364,12.6909091 14.4,12.6909091 14.4,12.6545455 C14.4,12.6181818 14.4363636,12.6181818 14.4363636,12.5818182 C14.4363636,12.5454545 14.4363636,12.5454545 14.4727273,12.5090909 C14.4727273,12.4727273 14.4727273,12.4727273 14.5090909,12.4363636 C14.5090909,12.4 14.5090909,12.3636364 14.5090909,12.3636364 C14.5090909,12.3636364 14.5090909,12.3272727 14.5090909,12.3272727 L14.5090909,3.63636364 C14.5454545,3.56363636 14.5454545,3.52727273 14.5090909,3.45454545 Z M1.45454545,11.8909091 L1.45454545,4.76363636 L2.90909091,5.41818182 L2.90909091,8.72727273 C2.90909091,9.12727273 3.23636364,9.45454545 3.63636364,9.45454545 C4.03636364,9.45454545 4.36363636,9.12727273 4.36363636,8.72727273 L4.36363636,6.03636364 L6.54545455,7.01818182 L6.54545455,14.1454545 L4.94545455,13.4181818 L1.45454545,11.8909091 Z M8,7.01818182 L13.0909091,4.76363636 L13.0909091,11.8909091 L8,14.1454545 L8,7.01818182 Z M7.27272727,5.74545455 L5.6,5.01818182 L10.3636364,2.90909091 L12.0363636,3.63636364 L7.27272727,5.74545455 Z M7.27272727,1.52727273 L8.58181818,2.10909091 L3.81818182,4.21818182 L2.50909091,3.63636364 L7.27272727,1.52727273 Z" id="形状"></path>
        </g>
    </g>
</svg>