<?xml version="1.0" encoding="UTF-8"?>
<svg width="24px" height="24px" viewBox="0 0 24 24" version="1.1" xmlns="http://www.w3.org/2000/svg" xmlns:xlink="http://www.w3.org/1999/xlink">
    <!-- Generator: Sketch 58 (84663) - https://sketch.com -->
    <title>highvoltage备份 19</title>
    <desc>Created with Sketch.</desc>
    <g id="highvoltage备份-19" stroke="none" stroke-width="1" fill="none" fill-rule="evenodd">
        <path d="M12,21 C16.9705627,21 21,16.9705627 21,12 C21,7.02943725 16.9705627,3 12,3 C7.02943725,3 3,7.02943725 3,12 C3,16.9705627 7.02943725,21 12,21 Z M12,19 C8.13400675,19 5,15.8659932 5,12 C5,8.13400675 8.13400675,5 12,5 C15.8659932,5 19,8.13400675 19,12 C19,15.8659932 15.8659932,19 12,19 Z" id="椭圆形" fill="#EDDC00" fill-rule="nonzero" opacity="0.498070126"></path>
        <g id="bitcoin" transform="translate(5.000000, 5.000000)">
            <rect id="bound" x="0" y="0" width="14" height="14"></rect>
            <rect id="Rectangle" fill="#EDDC00" fill-rule="nonzero" x="6.41666667" y="1.16666667" width="1.16666667" height="2.91666667" rx="0.583333333"></rect>
            <rect id="Rectangle-Copy-3" fill="#EDDC00" fill-rule="nonzero" x="6.41666667" y="9.33333333" width="1.16666667" height="2.91666667" rx="0.583333333"></rect>
            <path d="M10.4270833,8.21683333 C10.4270833,8.64539101 10.342112,9.00559578 10.1721667,9.29745833 C10.0022214,9.58932088 9.77686249,9.82391579 9.49608333,10.00125 C9.21530417,10.1785842 8.8957379,10.3060413 8.537375,10.383625 C8.1790121,10.4612087 7.81141853,10.5 7.43458333,10.5 L4.08333333,10.5 L4.08333333,2.653 L7.43458333,2.653 C7.73752927,2.653 8.04785952,2.68440246 8.36558333,2.74720833 C8.68330715,2.8100142 8.9714709,2.91715202 9.23008333,3.068625 C9.48869577,3.22009798 9.69927694,3.4251376 9.86183333,3.68375 C10.0243897,3.9423624 10.1056667,4.27116467 10.1056667,4.67016667 C10.1056667,5.10611329 9.98744565,5.46631803 9.751,5.75079167 C9.51455435,6.03526531 9.20422417,6.24030493 8.82,6.36591667 C9.04166777,6.42502799 9.25040182,6.49337447 9.44620833,6.593125 C9.64201484,6.69287552 9.81195763,6.82033258 9.95604167,6.9755 C10.1001257,7.13066743 10.2146523,7.31169343 10.299625,7.51858333 C10.3845976,7.72547323 10.4270833,7.95822096 10.4270833,8.21683333 Z M8.27691667,4.92508333 C8.27691667,4.659082 8.17532047,4.46512561 7.972125,4.34320833 C7.76892952,4.22129106 7.46783532,4.16033333 7.06883333,4.16033333 L6.13783333,4.16033333 L6.13783333,5.7785 L7.1575,5.7785 C7.51216842,5.7785 7.78740182,5.70645906 7.98320833,5.562375 C8.17901484,5.41829095 8.27691667,5.20586252 8.27691667,4.92508333 Z M8.53183333,8.0395 C8.53183333,7.71438727 8.40991789,7.4890284 8.16608333,7.36341667 C7.92224877,7.23780493 7.59714089,7.175 7.19075,7.175 L6.13783333,7.175 L6.13783333,8.9705 L7.20183333,8.9705 C7.34961185,8.9705 7.50292976,8.9575696 7.66179167,8.93170833 C7.82065357,8.90584707 7.96473545,8.85966702 8.09404167,8.79316667 C8.22334788,8.72666632 8.3286385,8.63245892 8.40991667,8.51054167 C8.49119483,8.38862442 8.53183333,8.23161208 8.53183333,8.0395 Z" id="Combined-Shape" fill="#EDDC00" fill-rule="nonzero"></path>
        </g>
    </g>
</svg>