<?xml version="1.0" encoding="UTF-8"?>
<svg width="1440px" height="475px" viewBox="0 0 1440 475" version="1.1" xmlns="http://www.w3.org/2000/svg" xmlns:xlink="http://www.w3.org/1999/xlink">
    <!-- Generator: Sketch 59.1 (86144) - https://sketch.com -->
    <title>电价</title>
    <desc>Created with Sketch.</desc>
    <defs>
        <rect id="path-1" x="0" y="520" width="1440" height="477"></rect>
        <filter x="-0.0%" y="-0.1%" width="100.1%" height="100.2%" filterUnits="objectBoundingBox" id="filter-2">
            <feOffset dx="0" dy="-1" in="SourceAlpha" result="shadowOffsetInner1"></feOffset>
            <feComposite in="shadowOffsetInner1" in2="SourceAlpha" operator="arithmetic" k2="-1" k3="1" result="shadowInnerInner1"></feComposite>
            <feColorMatrix values="0 0 0 0 0   0 0 0 0 0   0 0 0 0 0  0 0 0 0.04 0" type="matrix" in="shadowInnerInner1"></feColorMatrix>
        </filter>
    </defs>
    <g id="页面-1" stroke="none" stroke-width="1" fill="none" fill-rule="evenodd">
        <g id="电价" transform="translate(0.000000, -522.000000)">
            <g id="矩形">
                <use fill="#F6F9FC" fill-rule="evenodd" xlink:href="#path-1"></use>
                <use fill="black" fill-opacity="1" filter="url(#filter-2)" xlink:href="#path-1"></use>
            </g>
            <g id="编组-10" transform="translate(573.000000, 620.000000)">
                <g id="编组">
                    <text id="矿机托管流程" font-family="PingFangSC-Medium, PingFang SC" font-size="36" font-weight="400" letter-spacing="1.5" fill="#605AFE">
                        <tspan x="35" y="38">矿机托管流程</tspan>
                    </text>
                    <g id="编组-2">
                        <rect id="矩形" fill="#605AFE" x="0" y="3" width="20" height="20" rx="2"></rect>
                        <rect id="矩形备份" fill="#999EFF" x="23" y="0" width="6" height="6" rx="2"></rect>
                    </g>
                    <g id="编组-11" transform="translate(266.000000, 23.000000)">
                        <rect id="矩形备份-2" fill="#605AFE" x="11" y="0" width="16" height="16" rx="2"></rect>
                        <rect id="矩形备份-3" fill="#999EFF" x="0" y="15" width="7" height="7" rx="2"></rect>
                    </g>
                </g>
                <text id="云算力、矿机租货均是以出租比特币矿机算力" font-family="PingFangSC-Regular, PingFang SC" font-size="16" font-weight="normal" fill="#999999">
                    <tspan x="59" y="77">简单四步，轻松矿机托管</tspan>
                </text>
            </g>
            <g id="编组-9" transform="translate(160.000000, 742.000000)">
                <g id="编组-4">
                    <g id="编组-3" transform="translate(0.000000, 100.000000)">
                        <text id="购买矿机" font-family="PingFangSC-Medium, PingFang SC" font-size="18" font-weight="400" fill="#333333">
                            <tspan x="82" y="19">购买矿机</tspan>
                        </text>
                        <text id="选择矿机托管服务" font-family="PingFangSC-Regular, PingFang SC" font-size="14" font-weight="normal" fill="#999999">
                            <tspan x="61.5" y="50">选择矿机托管服务</tspan>
                        </text>
                    </g>
                    <g id="highvoltage备份-21" transform="translate(78.000000, 0.000000)">
                        <g id="bag-1">
                            <rect id="bound" x="0" y="0" width="80" height="80"></rect>
                            <path d="M46.6666667,30 L46.6666667,26.6666667 C46.6666667,22.9847683 43.6818983,20 40,20 C36.3181017,20 33.3333333,22.9847683 33.3333333,26.6666667 L33.3333333,30 L26.6666667,30 L26.6666667,26.6666667 C26.6666667,19.30287 32.6362033,13.3333333 40,13.3333333 C47.3637967,13.3333333 53.3333333,19.30287 53.3333333,26.6666667 L53.3333333,30 L46.6666667,30 Z M46.6666667,30 L46.6666667,26.6666667 C46.6666667,22.9847683 43.6818983,20 40,20 C36.3181017,20 33.3333333,22.9847683 33.3333333,26.6666667 L33.3333333,30 L26.6666667,30 L26.6666667,26.6666667 C26.6666667,19.30287 32.6362033,13.3333333 40,13.3333333 C47.3637967,13.3333333 53.3333333,19.30287 53.3333333,26.6666667 L53.3333333,30 L46.6666667,30 Z" id="Rectangle-58" fill="#FF6565" fill-rule="nonzero" opacity="0.3"></path>
                            <path d="M22.823757,30 L57.176243,30 C58.805707,30 60.1963407,31.1780435 60.4642227,32.7853367 L65.37289,62.23734 C65.9781903,65.8691423 63.524726,69.3039923 59.8929237,69.9092927 C59.5307143,69.969661 59.1641363,70 58.7969307,70 L21.2030695,70 C17.5211711,70 14.5364028,67.0152317 14.5364028,63.3333333 C14.5364028,62.9661277 14.5667417,62.5995497 14.62711,62.23734 L19.5357772,32.7853367 C19.8036594,31.1780435 21.1942931,30 22.823757,30 Z M21.2030695,63.3333333 L58.7969307,63.3333333 L54.352486,36.6666667 L25.6475139,36.6666667 L21.2030695,63.3333333 Z" id="Combined-Shape" fill="#FF6565" fill-rule="nonzero"></path>
                        </g>
                    </g>
                </g>
                <g id="编组-6" transform="translate(295.000000, 0.000000)">
                    <g id="编组-3备份" transform="translate(0.000000, 100.000000)">
                        <text id="等待发货" font-family="PingFangSC-Medium, PingFang SC" font-size="18" font-weight="400" fill="#333333">
                            <tspan x="82" y="19">等待发货</tspan>
                        </text>
                        <text id="等待矿机托管矿场" font-family="PingFangSC-Regular, PingFang SC" font-size="14" font-weight="normal" fill="#999999">
                            <tspan x="61.5" y="50">等待矿机托管矿场</tspan>
                        </text>
                    </g>
                    <g id="highvoltage备份-20" transform="translate(78.000000, 0.000000)" fill="#3BA0FF">
                        <g id="truck" transform="translate(10.000000, 13.333333)">
                            <path d="M9.6969697,43.6363636 L4.84848485,43.6363636 C3.51515152,43.6363636 2.42424242,42.5454545 2.42424242,41.2121212 L2.42424242,29.0909091 L55.7575758,29.0909091 L55.7575758,41.2121212 C55.7575758,42.5454545 54.6666667,43.6363636 53.3333333,43.6363636 L48.969697,43.6363636" id="路径" fill-rule="nonzero" opacity="0.31921968"></path>
                            <path d="M58.1818182,28.969697 C58.1818182,28.8484848 58.1818182,28.8484848 58.1818182,28.7272727 C58.1818182,28.6060606 58.1818182,28.6060606 58.1818182,28.4848485 C58.1818182,28.3636364 58.1818182,28.3636364 58.0606061,28.2424242 C58.0606061,28.1212121 57.9393939,28.1212121 57.9393939,28 C57.9393939,28 57.9393939,27.8787879 57.9393939,27.8787879 L48.2424242,10.9090909 C47.7575758,10.1818182 47.030303,9.6969697 46.1818182,9.6969697 L38.9090909,9.6969697 L38.9090909,4.84848485 C38.9090909,2.18181818 36.7272727,0 34.0606061,0 L4.84848485,0 C2.18181818,0 0,2.18181818 0,4.84848485 L0,41.2121212 C0,43.8787879 2.18181818,46.0606061 4.84848485,46.0606061 L7.27272727,46.0606061 C7.27272727,50.0606061 10.5454545,53.3333333 14.5454545,53.3333333 C18.5454545,53.3333333 21.8181818,50.0606061 21.8181818,46.0606061 L36.3636364,46.0606061 C36.3636364,50.0606061 39.6363636,53.3333333 43.6363636,53.3333333 C47.6363636,53.3333333 50.9090909,50.0606061 50.9090909,46.0606061 L53.3333333,46.0606061 C56,46.0606061 58.1818182,43.8787879 58.1818182,41.2121212 L58.1818182,29.0909091 C58.1818182,29.0909091 58.1818182,28.969697 58.1818182,28.969697 Z M44.6060606,14.5454545 L51.5151515,26.6666667 L38.7878788,26.6666667 L38.7878788,14.5454545 L44.6060606,14.5454545 Z M14.5454545,48.4848485 C13.2121212,48.4848485 12.1212121,47.3939394 12.1212121,46.0606061 C12.1212121,44.7272727 13.2121212,43.6363636 14.5454545,43.6363636 C15.8787879,43.6363636 16.969697,44.7272727 16.969697,46.0606061 C16.969697,47.3939394 15.8787879,48.4848485 14.5454545,48.4848485 Z M43.6363636,48.4848485 C42.3030303,48.4848485 41.2121212,47.3939394 41.2121212,46.0606061 C41.2121212,44.7272727 42.3030303,43.6363636 43.6363636,43.6363636 C44.969697,43.6363636 46.0606061,44.7272727 46.0606061,46.0606061 C46.0606061,47.3939394 44.969697,48.4848485 43.6363636,48.4848485 Z M53.3333333,41.2121212 L49.0909091,41.2121212 C47.7575758,39.7575758 45.8181818,38.7878788 43.6363636,38.7878788 C41.4545455,38.7878788 39.5151515,39.7575758 38.1818182,41.2121212 L20,41.2121212 C18.6666667,39.7575758 16.7272727,38.7878788 14.5454545,38.7878788 C12.3636364,38.7878788 10.4242424,39.7575758 9.09090909,41.2121212 L4.84848485,41.2121212 L4.84848485,4.84848485 L33.9393939,4.84848485 L33.9393939,29.0909091 C33.9393939,30.4242424 35.030303,31.5151515 36.3636364,31.5151515 L53.3333333,31.5151515 L53.3333333,41.2121212 Z" id="形状" fill-rule="nonzero"></path>
                        </g>
                    </g>
                </g>
                <g id="编组-7" transform="translate(590.000000, 0.000000)">
                    <g id="编组-3备份-2" transform="translate(0.000000, 100.000000)">
                        <text id="矿机到货" font-family="PingFangSC-Medium, PingFang SC" font-size="18" font-weight="400" fill="#333333">
                            <tspan x="82" y="19">矿机到货</tspan>
                        </text>
                        <text id="由技术人员部署矿机托管上架" font-family="PingFangSC-Regular, PingFang SC" font-size="14" font-weight="normal" fill="#999999">
                            <tspan x="26.5" y="50">由技术人员部署矿机托管上架</tspan>
                        </text>
                    </g>
                    <g id="highvoltage备份-18" transform="translate(78.000000, 0.000000)" fill="#45ED78">
                        <g id="box" transform="translate(16.666667, 13.333333)">
                            <polygon id="路径" fill-rule="nonzero" opacity="0.16" points="2.42424242 41.2121212 2.42424242 12.1212121 24.2424242 21.8181818 24.2424242 50.9090909"></polygon>
                            <path d="M48.3636364,11.5151515 C48.3636364,11.5151515 48.3636364,11.3939394 48.3636364,11.3939394 C48.3636364,11.2727273 48.2424242,11.030303 48.1212121,10.9090909 C48.1212121,10.9090909 48.1212121,10.9090909 48.1212121,10.9090909 C48,10.7878788 47.8787879,10.5454545 47.7575758,10.4242424 C47.7575758,10.4242424 47.6363636,10.3030303 47.6363636,10.3030303 C47.5151515,10.1818182 47.2727273,10.0606061 47.1515152,9.93939394 C47.1515152,9.93939394 47.1515152,9.93939394 47.1515152,9.93939394 L47.1515152,9.93939394 C47.1515152,9.93939394 47.1515152,9.93939394 47.1515152,9.93939394 L25.3333333,0.242424242 C24.7272727,8.81239526e-16 24,8.81239526e-16 23.3939394,0.242424242 L1.57575758,9.93939394 C1.57575758,9.93939394 1.45454545,9.93939394 1.45454545,10.0606061 C1.33333333,10.0606061 1.33333333,10.0606061 1.21212121,10.1818182 C1.21212121,10.1818182 1.09090909,10.3030303 1.09090909,10.3030303 C0.96969697,10.3030303 0.96969697,10.4242424 0.848484848,10.4242424 C0.727272727,10.5454545 0.727272727,10.6666667 0.606060606,10.6666667 C0.606060606,10.7878788 0.484848485,10.7878788 0.484848485,10.9090909 C0.363636364,11.030303 0.363636364,11.1515152 0.363636364,11.2727273 C0.363636364,11.3939394 0.363636364,11.3939394 0.242424242,11.5151515 C0,11.6363636 0,11.8787879 0,12.1212121 L0,41.2121212 C0,41.2121212 0,41.2121212 0,41.2121212 C0,41.4545455 0,41.5757576 0.121212121,41.8181818 C0.121212121,41.8181818 0.121212121,41.9393939 0.121212121,41.9393939 C0.242424242,42.1818182 0.242424242,42.3030303 0.363636364,42.5454545 C0.363636364,42.5454545 0.363636364,42.5454545 0.363636364,42.5454545 C0.484848485,42.6666667 0.606060606,42.7878788 0.727272727,42.9090909 C0.727272727,42.9090909 0.848484848,43.030303 0.848484848,43.030303 C0.96969697,43.1515152 1.21212121,43.2727273 1.33333333,43.3939394 L23.1515152,53.0909091 C23.5151515,53.2121212 23.7575758,53.3333333 24.1212121,53.3333333 C24.3636364,53.3333333 24.4848485,53.3333333 24.7272727,53.2121212 C24.7272727,53.2121212 24.8484848,53.2121212 24.8484848,53.2121212 C24.969697,53.2121212 24.969697,53.2121212 25.0909091,53.0909091 L46.9090909,43.3939394 C46.9090909,43.3939394 46.9090909,43.3939394 46.9090909,43.3939394 L46.9090909,43.3939394 C46.9090909,43.3939394 47.030303,43.3939394 47.030303,43.2727273 C47.1515152,43.2727273 47.2727273,43.1515152 47.2727273,43.1515152 C47.3939394,43.1515152 47.3939394,43.030303 47.3939394,43.030303 C47.5151515,43.030303 47.5151515,42.9090909 47.6363636,42.9090909 C47.6363636,42.9090909 47.7575758,42.7878788 47.7575758,42.6666667 C47.7575758,42.5454545 47.8787879,42.5454545 47.8787879,42.4242424 C47.8787879,42.3030303 48,42.3030303 48,42.1818182 C48,42.0606061 48.1212121,42.0606061 48.1212121,41.9393939 C48.1212121,41.8181818 48.1212121,41.8181818 48.2424242,41.6969697 C48.2424242,41.5757576 48.2424242,41.5757576 48.3636364,41.4545455 C48.3636364,41.3333333 48.3636364,41.2121212 48.3636364,41.2121212 C48.3636364,41.2121212 48.3636364,41.0909091 48.3636364,41.0909091 L48.3636364,12.1212121 C48.4848485,11.8787879 48.4848485,11.7575758 48.3636364,11.5151515 Z M4.84848485,39.6363636 L4.84848485,15.8787879 L9.6969697,18.0606061 L9.6969697,29.0909091 C9.6969697,30.4242424 10.7878788,31.5151515 12.1212121,31.5151515 C13.4545455,31.5151515 14.5454545,30.4242424 14.5454545,29.0909091 L14.5454545,20.1212121 L21.8181818,23.3939394 L21.8181818,47.1515152 L16.4848485,44.7272727 L4.84848485,39.6363636 Z M26.6666667,23.3939394 L43.6363636,15.8787879 L43.6363636,39.6363636 L26.6666667,47.1515152 L26.6666667,23.3939394 Z M24.2424242,19.1515152 L18.6666667,16.7272727 L34.5454545,9.6969697 L40.1212121,12.1212121 L24.2424242,19.1515152 Z M24.2424242,5.09090909 L28.6060606,7.03030303 L12.7272727,14.0606061 L8.36363636,12.1212121 L24.2424242,5.09090909 Z" id="形状" fill-rule="nonzero"></path>
                        </g>
                    </g>
                </g>
                <g id="编组-8" transform="translate(885.000000, 0.000000)">
                    <g id="编组-3备份-3" transform="translate(0.000000, 100.000000)">
                        <text id="开始挖矿" font-family="PingFangSC-Medium, PingFang SC" font-size="18" font-weight="400" fill="#333333">
                            <tspan x="82" y="19">开始挖矿</tspan>
                        </text>
                        <text id="获得矿机挖矿收益" font-family="PingFangSC-Regular, PingFang SC" font-size="14" font-weight="normal" fill="#999999">
                            <tspan x="61.5" y="50">获得矿机挖矿收益</tspan>
                        </text>
                    </g>
                    <g id="highvoltage备份-19" transform="translate(78.000000, 0.000000)">
                        <path d="M40,70 C56.5685425,70 70,56.5685425 70,40 C70,23.4314575 56.5685425,10 40,10 C23.4314575,10 10,23.4314575 10,40 C10,56.5685425 23.4314575,70 40,70 Z M40,63.3333333 C27.1133558,63.3333333 16.6666667,52.8866442 16.6666667,40 C16.6666667,27.1133558 27.1133558,16.6666667 40,16.6666667 C52.8866442,16.6666667 63.3333333,27.1133558 63.3333333,40 C63.3333333,52.8866442 52.8866442,63.3333333 40,63.3333333 Z" id="椭圆形" fill="#EDDC00" fill-rule="nonzero" opacity="0.498070126"></path>
                        <g id="bitcoin" stroke-width="1" fill-rule="evenodd" transform="translate(16.666667, 16.666667)">
                            <rect id="bound" x="0" y="0" width="46.6666667" height="46.6666667"></rect>
                            <rect id="Rectangle" fill="#EDDC00" fill-rule="nonzero" x="21.3888889" y="3.88888889" width="3.88888889" height="9.72222222" rx="0.388888889"></rect>
                            <rect id="Rectangle-Copy-3" fill="#EDDC00" fill-rule="nonzero" x="21.3888889" y="31.1111111" width="3.88888889" height="9.72222222" rx="0.388888889"></rect>
                            <path d="M34.7569444,27.3894444 C34.7569444,28.81797 34.4737066,30.0186526 33.9072222,30.9915278 C33.3407379,31.9644029 32.5895416,32.746386 31.6536111,33.3375 C30.7176806,33.928614 29.6524597,34.3534709 28.4579167,34.6120833 C27.2633737,34.8706958 26.0380618,35 24.7819444,35 L13.6111111,35 L13.6111111,8.84333333 L24.7819444,8.84333333 C25.7917642,8.84333333 26.8261984,8.9480082 27.8852778,9.15736111 C28.9443572,9.366714 29.904903,9.72384008 30.7669444,10.22875 C31.6289859,10.7336599 32.3309231,11.4171253 32.8727778,12.2791667 C33.4146324,13.141208 33.6855556,14.2372156 33.6855556,15.5672222 C33.6855556,17.0203776 33.2914855,18.2210601 32.5033333,19.1693056 C31.7151812,20.117551 30.6807472,20.8010164 29.4,21.2197222 C30.1388926,21.41676 30.8346727,21.6445816 31.4873611,21.9770833 C32.1400495,22.3095851 32.7065254,22.7344419 33.1868056,23.2516667 C33.6670857,23.7688914 34.0488412,24.3723114 34.3320833,25.0619444 C34.6153255,25.7515774 34.7569444,26.5274032 34.7569444,27.3894444 Z M27.5897222,16.4169444 C27.5897222,15.5302733 27.2510682,14.883752 26.57375,14.4773611 C25.8964317,14.0709702 24.8927844,13.8677778 23.5627778,13.8677778 L20.4594444,13.8677778 L20.4594444,19.2616667 L23.8583333,19.2616667 C25.0405614,19.2616667 25.9580061,19.0215302 26.6106944,18.54125 C27.2633828,18.0609698 27.5897222,17.352875 27.5897222,16.4169444 Z M28.4394444,26.7983333 C28.4394444,25.7146242 28.0330596,24.963428 27.2202778,24.5447222 C26.4074959,24.1260164 25.323803,23.9166667 23.9691667,23.9166667 L20.4594444,23.9166667 L20.4594444,29.9016667 L24.0061111,29.9016667 C24.4987062,29.9016667 25.0097659,29.8585653 25.5393056,29.7723611 C26.0688452,29.6861569 26.5491182,29.5322234 26.9801389,29.3105556 C27.4111596,29.0888877 27.7621283,28.7748631 28.0330556,28.3684722 C28.3039828,27.9620814 28.4394444,27.4387069 28.4394444,26.7983333 Z" id="Combined-Shape" fill="#EDDC00" fill-rule="nonzero"></path>
                        </g>
                    </g>
                </g>
                <g id="highvoltage备份-24" transform="translate(235.000000, 48.000000)" fill="#45ED78">
                    <g id="angle-double-right" transform="translate(12.500000, 12.500000)">
                        <path d="M18.2322388,4.26775795 C17.255928,3.2914472 17.255928,1.70853478 18.2322388,0.732224025 C19.2085495,-0.2440867 20.791462,-0.2440867 21.7677728,0.732224025 L36.7677728,15.732224 C37.71422,16.6786715 37.747334,18.2026375 36.842891,19.1893025 L23.092891,34.1893025 C22.15991,35.2071 20.5784915,35.2758573 19.5606943,34.3428763 C18.5428968,33.4098953 18.4741393,31.828477 19.4071203,30.8106795 L31.5396613,17.5751803 L18.2322388,4.26775795 Z" id="Path-94" fill-rule="nonzero"></path>
                        <path d="M0.732238,4.26775695 C-0.24407275,3.29144622 -0.24407275,1.70853377 0.732238,0.73222305 C1.70854875,-0.244087675 3.29146125,-0.244087675 4.267772,0.73222305 L19.267772,15.732223 C20.2142193,16.6786704 20.2473334,18.2026365 19.3428904,19.1893016 L5.59289025,34.1893015 C4.65990925,35.207099 3.078491,35.2758562 2.0606935,34.3428752 C1.042896,33.4098942 0.97413875,31.828476 1.90711975,30.8106785 L14.0396605,17.5751794 L0.732238,4.26775695 Z" id="Path-94" fill-rule="nonzero" opacity="0.3"></path>
                    </g>
                </g>
                <g id="highvoltage备份-24" transform="translate(530.000000, 48.000000)" fill="#45ED78">
                    <g id="angle-double-right" transform="translate(12.500000, 12.500000)">
                        <path d="M18.2322388,4.26775795 C17.255928,3.2914472 17.255928,1.70853478 18.2322388,0.732224025 C19.2085495,-0.2440867 20.791462,-0.2440867 21.7677728,0.732224025 L36.7677728,15.732224 C37.71422,16.6786715 37.747334,18.2026375 36.842891,19.1893025 L23.092891,34.1893025 C22.15991,35.2071 20.5784915,35.2758573 19.5606943,34.3428763 C18.5428968,33.4098953 18.4741393,31.828477 19.4071203,30.8106795 L31.5396613,17.5751803 L18.2322388,4.26775795 Z" id="Path-94" fill-rule="nonzero"></path>
                        <path d="M0.732238,4.26775695 C-0.24407275,3.29144622 -0.24407275,1.70853377 0.732238,0.73222305 C1.70854875,-0.244087675 3.29146125,-0.244087675 4.267772,0.73222305 L19.267772,15.732223 C20.2142193,16.6786704 20.2473334,18.2026365 19.3428904,19.1893016 L5.59289025,34.1893015 C4.65990925,35.207099 3.078491,35.2758562 2.0606935,34.3428752 C1.042896,33.4098942 0.97413875,31.828476 1.90711975,30.8106785 L14.0396605,17.5751794 L0.732238,4.26775695 Z" id="Path-94" fill-rule="nonzero" opacity="0.3"></path>
                    </g>
                </g>
                <g id="highvoltage备份-24" transform="translate(825.000000, 48.000000)" fill="#45ED78">
                    <g id="angle-double-right" transform="translate(12.500000, 12.500000)">
                        <path d="M18.2322388,4.26775795 C17.255928,3.2914472 17.255928,1.70853478 18.2322388,0.732224025 C19.2085495,-0.2440867 20.791462,-0.2440867 21.7677728,0.732224025 L36.7677728,15.732224 C37.71422,16.6786715 37.747334,18.2026375 36.842891,19.1893025 L23.092891,34.1893025 C22.15991,35.2071 20.5784915,35.2758573 19.5606943,34.3428763 C18.5428968,33.4098953 18.4741393,31.828477 19.4071203,30.8106795 L31.5396613,17.5751803 L18.2322388,4.26775795 Z" id="Path-94" fill-rule="nonzero"></path>
                        <path d="M0.732238,4.26775695 C-0.24407275,3.29144622 -0.24407275,1.70853377 0.732238,0.73222305 C1.70854875,-0.244087675 3.29146125,-0.244087675 4.267772,0.73222305 L19.267772,15.732223 C20.2142193,16.6786704 20.2473334,18.2026365 19.3428904,19.1893016 L5.59289025,34.1893015 C4.65990925,35.207099 3.078491,35.2758562 2.0606935,34.3428752 C1.042896,33.4098942 0.97413875,31.828476 1.90711975,30.8106785 L14.0396605,17.5751794 L0.732238,4.26775695 Z" id="Path-94" fill-rule="nonzero" opacity="0.3"></path>
                    </g>
                </g>
            </g>
        </g>
    </g>
</svg>