<?xml version="1.0" encoding="UTF-8"?>
<svg width="24px" height="24px" viewBox="0 0 24 24" version="1.1" xmlns="http://www.w3.org/2000/svg" xmlns:xlink="http://www.w3.org/1999/xlink">
    <!-- Generator: Sketch 58 (84663) - https://sketch.com -->
    <title>highvoltage备份 11</title>
    <desc>Created with Sketch.</desc>
    <g id="highvoltage备份-11" stroke="none" stroke-width="1" fill="none" fill-rule="evenodd">
        <g id="chat-smile">
            <rect id="bound" x="0" y="0" width="24" height="24"></rect>
            <polygon id="Path-75" fill="#FF6565" fill-rule="nonzero" opacity="0.3" points="5 15 3 21.5 9.5 19.5"></polygon>
            <path d="M13,2 C18.5228475,2 23,6.4771525 23,12 C23,17.5228475 18.5228475,22 13,22 C7.4771525,22 3,17.5228475 3,12 C3,6.4771525 7.4771525,2 13,2 Z M9,14 L9,14 L9.00489531,14.1996403 C9.10892112,16.3160315 10.8578046,18 13,18 C15.209139,18 17,16.209139 17,14 L17,14 Z M10,8 C9.44771525,8 9,8.44771525 9,9 L9,9 L9,10 C9,10.5522847 9.44771525,11 10,11 C10.5522847,11 11,10.5522847 11,10 L11,10 L11,9 C11,8.44771525 10.5522847,8 10,8 Z M16,8 C15.4477153,8 15,8.44771525 15,9 L15,9 L15,10 C15,10.5522847 15.4477153,11 16,11 C16.5522847,11 17,10.5522847 17,10 L17,10 L17,9 C17,8.44771525 16.5522847,8 16,8 Z" id="形状结合" fill="#FF8282" fill-rule="nonzero"></path>
        </g>
    </g>
</svg>